<svg width="3660" height="3323" viewBox="0 0 3660 3323" fill="none" xmlns="http://www.w3.org/2000/svg">
<path d="M694.637 3114.27C704.016 3122.53 714.445 3129.9 725.925 3136.37C737.221 3142.85 750.511 3148.05 765.797 3151.97C780.984 3155.81 796.199 3157.16 811.441 3156.01C826.683 3154.86 842.918 3149.73 860.147 3140.61C877.29 3131.6 893.437 3118.49 908.587 3101.3C923.737 3084.1 934.749 3066.39 941.623 3048.15C948.41 3030 951.37 3013.35 950.504 2998.18C949.552 2983.11 946.216 2968.29 940.497 2953.7C934.594 2939.13 927.717 2926.65 919.864 2916.26C912 2905.69 903.379 2896.27 894 2888C879.248 2875.01 864.762 2864.76 850.542 2857.26C836.409 2849.67 819.335 2842.26 799.32 2835.04C793.128 2850.93 781.941 2868.05 765.758 2886.42L746.648 2908.11C740.364 2915.24 719.966 2905.6 685.454 2879.18C682.313 2880.58 680.29 2882.87 679.385 2886.07C705.67 2907.84 725.993 2925.05 740.354 2937.71C752.371 2948.29 769.025 2963.66 790.318 2983.81C792.982 2982.17 795.005 2979.87 796.387 2976.93C775.799 2954.79 768.647 2940.16 774.931 2933.03L827.354 2873.53C844.192 2871.36 863.308 2879.7 884.703 2898.55C896.134 2908.63 904.687 2919.89 910.365 2932.36C916.042 2944.82 918.945 2957.19 919.074 2969.45C919.02 2981.72 917.041 2994.21 913.139 3006.91C909.237 3019.61 904.168 3031.37 897.932 3042.19C891.513 3053.02 884.172 3063.12 875.908 3072.5C865.32 3084.52 853.525 3094.95 840.523 3103.8C827.337 3112.66 813.153 3119.6 797.971 3124.62C782.606 3129.65 766.66 3130.61 750.135 3127.5C733.512 3124.31 718.068 3116.43 703.805 3103.86C694.231 3095.43 686.675 3086.08 681.137 3075.82C675.599 3065.56 672 3056.05 670.34 3047.3C668.582 3038.46 668.268 3028.38 669.397 3017.06C670.44 3005.83 671.93 2996.55 673.866 2989.24C675.618 2981.93 678.087 2972.82 681.273 2961.92C677.9 2959.64 675.146 2959.13 673.01 2960.37C654.674 2995.75 648.098 3025.27 653.284 3048.93C658.285 3072.6 672.07 3094.38 694.637 3114.27ZM690.6 2958.43C686.538 2971.51 683.596 2982.62 681.776 2991.78C679.87 3001.03 678.583 3012.05 677.914 3024.82C677.061 3037.61 678.839 3049.67 683.246 3061.02C687.653 3072.36 694.452 3082.86 703.642 3092.52C715.675 3101.91 728.793 3107.31 742.997 3108.72C757.115 3110.22 770.829 3108.25 784.138 3102.8C797.447 3097.34 809.922 3090.37 821.564 3081.89C833.119 3073.5 843.76 3063.79 853.487 3052.75C866.916 3037.51 877.69 3021.14 885.81 3003.66C893.931 2986.17 897.553 2967.58 896.678 2947.89C895.619 2928.22 887.567 2911.75 872.522 2898.49C858.551 2886.18 844.81 2880.41 831.296 2881.17L780.939 2938.32C778.012 2941.65 786.452 2954.03 806.258 2975.47C802.87 2984.63 797.123 2990.76 789.015 2993.86C761.01 2966.75 720.871 2930.87 668.599 2886.2C671.517 2878.35 676.713 2872.26 684.188 2867.91C707.954 2884.86 721.3 2891.68 724.227 2888.35L743.337 2866.67C759.004 2848.89 770.681 2830.02 778.369 2810.07C796.706 2817.03 810.106 2822.5 818.568 2826.49C827.019 2830.29 838.413 2836.86 852.749 2846.19C867.171 2855.43 882.686 2867.36 899.294 2882C909.357 2890.86 918.472 2900.8 926.641 2911.82C934.896 2922.74 942.09 2935.84 948.223 2951.14C954.27 2966.53 957.75 2982.18 958.662 2998.08C959.575 3013.98 956.483 3031.48 949.386 3050.56C942.203 3069.74 930.606 3088.42 914.595 3106.59C898.584 3124.76 881.608 3138.61 863.667 3148.14C845.64 3157.77 828.687 3163.22 812.808 3164.5C796.929 3165.78 781.071 3164.48 765.234 3160.59C749.213 3156.71 735.317 3151.41 723.544 3144.68C711.588 3137.96 700.578 3130.17 690.516 3121.31C674.298 3107.02 658.13 3089.13 642.011 3067.64C625.794 3046.06 615.258 3032.61 610.401 3027.29C624.632 3017.44 635.623 3007.43 643.375 2997.25C651.041 2987.17 658.549 2973.14 665.899 2955.14C673.811 2951.88 682.045 2952.97 690.6 2958.43Z" fill="#FE0000"/>
<path d="M677.501 2705.93C635.038 2739.99 602.825 2765.49 580.863 2782.43C555.498 2801.99 526.282 2823.7 493.213 2847.56C485.218 2853.39 466.99 2839.99 438.528 2807.35C436.092 2808.24 433.669 2810.11 431.259 2812.96C452.917 2839.33 469.59 2860.1 481.279 2875.26C491.06 2887.94 504.523 2906.25 521.668 2930.19C524.161 2929.58 526.584 2927.71 528.938 2924.58C512.917 2899.12 508.643 2883.34 516.114 2877.25C539.549 2857.53 567.971 2834.79 601.378 2809.03C634.064 2783.82 667.072 2759.36 700.402 2735.63C708.191 2729.95 722.364 2738.09 742.921 2760.06C745.207 2759.61 747.63 2757.74 750.19 2754.45C736.054 2737.4 721.869 2719.65 707.636 2701.19C690.699 2679.23 674.747 2657.9 659.781 2637.22C657.495 2637.66 655.072 2639.53 652.512 2642.82C676.849 2678.64 685.179 2699.68 677.501 2705.93ZM538.786 2924.88C533.333 2931.88 526.523 2936.81 518.358 2939.65C511.36 2930.58 502.156 2918.11 490.744 2902.24C479.252 2886.28 471.161 2875.25 466.47 2869.17C463.051 2864.73 456.348 2856.26 446.361 2843.73C436.374 2831.21 427.803 2820.31 420.646 2811.03C425.013 2804.54 431.274 2799.54 439.431 2796.05C459.273 2817.08 471.18 2826.24 475.155 2823.5C501.886 2804.86 534.894 2780.39 574.179 2750.09C612.123 2720.83 640.338 2698.25 658.824 2682.35C659.443 2681.87 659.863 2681.14 660.084 2680.15C660.305 2679.15 660.264 2678.03 659.96 2676.79C659.578 2675.44 659.247 2674.05 658.967 2672.62C658.584 2671.27 657.923 2669.56 656.984 2667.49C655.965 2665.32 655.133 2663.49 654.488 2662.02C653.843 2660.54 652.88 2658.65 651.6 2656.35C650.239 2653.95 649.185 2652.05 648.437 2650.65C647.609 2649.15 646.464 2647.24 645 2644.92C643.457 2642.49 642.471 2640.78 642.041 2639.8C646.463 2633.59 653.043 2629.01 661.78 2626.06C690.296 2664.74 707.695 2688.15 713.977 2696.3C718.271 2701.87 733.672 2720.99 760.181 2753.65C755.054 2761.72 748.403 2766.85 740.229 2769.04C720.706 2748.41 708.957 2739.47 704.983 2742.21C678.251 2760.85 645.347 2785.24 606.268 2815.37C573.067 2840.98 544.749 2863.64 521.313 2883.35C517.657 2886.5 523.482 2900.35 538.786 2924.88Z" fill="#FE0000"/>
<path d="M416.326 2459.45L393.488 2470.98C366.64 2484.54 335.379 2501.06 299.705 2520.54C293.662 2523.89 295.965 2538.7 306.612 2564.97C303.366 2568.66 300.058 2571.35 296.687 2573.05C294.595 2574.11 290.639 2575.08 284.82 2575.98C276.594 2557.96 267.99 2540.06 259.008 2522.28C249.967 2504.38 240.343 2486.19 230.136 2467.72C234.311 2463.57 237.445 2460.96 239.537 2459.91C242.908 2458.2 247.038 2457.14 251.927 2456.71C266.404 2479.6 276.665 2489.66 282.709 2486.9C307.996 2476.02 344.232 2458.66 391.419 2434.83C444.649 2407.94 487.328 2385.44 519.456 2367.31L527.026 2381.43L408.191 2649.11C410.283 2648.05 414.147 2646.18 419.785 2643.47C425.306 2640.83 429.577 2638.75 432.599 2637.22C488.735 2608.86 536.179 2583.95 574.932 2562.48C581.091 2559.08 578.846 2544.24 568.199 2517.96C571.445 2514.28 574.754 2511.59 578.124 2509.89C580.681 2508.59 584.869 2507.5 590.689 2506.6C599.032 2524.85 607.636 2542.75 616.5 2560.3C625.541 2578.2 635.165 2596.39 645.373 2614.86C641.197 2619.02 637.831 2621.74 635.274 2623.03C631.904 2624.73 627.773 2625.8 622.884 2626.22C608.407 2603.34 598.088 2593.31 591.927 2596.13C566.816 2607.06 530.667 2624.45 483.48 2648.28C447.335 2666.54 415.318 2683.29 387.429 2698.55C385.317 2709.1 387.585 2722.39 394.23 2738.44C391.973 2741.77 388.81 2744.46 384.742 2746.51C380.442 2748.68 375.991 2749.55 371.389 2749.1C360.281 2724.22 345.364 2693.24 326.637 2656.17L416.326 2459.45ZM395.029 2441.98C359.814 2459.77 323.577 2477.12 286.32 2494.04C275.625 2498.86 262.746 2489.25 247.682 2465.2C245.237 2465.27 242.505 2466.65 239.488 2469.34C251.281 2490.95 259.496 2506.35 264.134 2515.53C271.472 2530.06 279.489 2546.8 288.185 2565.75C292.141 2564.92 294.872 2563.54 296.379 2561.61C285.846 2534.98 285.752 2518.91 296.094 2513.39C331.769 2493.92 363.03 2477.4 389.878 2463.84C405.568 2455.91 426.838 2445.46 453.688 2432.48L345.497 2675.75C358.705 2701.9 369.189 2723.81 376.948 2741.48C380.207 2741 382.938 2739.62 385.142 2737.34C378.498 2721.88 377.011 2707.09 380.681 2692.98C408.453 2677.79 441.516 2660.5 479.87 2641.13C515.086 2623.34 551.235 2605.96 588.317 2588.98C599.128 2584.1 612.066 2593.69 627.129 2617.73C629.458 2617.72 632.19 2616.34 635.323 2613.59C623.589 2592.1 615.374 2576.7 610.677 2567.4C603.339 2552.87 595.322 2536.14 586.626 2517.19C582.554 2518.08 579.823 2519.46 578.433 2521.33C588.965 2547.95 589.001 2564.05 578.542 2569.63C542.984 2589.05 511.781 2605.54 484.934 2619.1C454.251 2634.6 423.682 2649.6 393.228 2664.11L392.347 2662.37L518.117 2381.55L516.095 2378.42C489.428 2393.49 449.073 2414.68 395.029 2441.98Z" fill="#FE0000"/>
<path d="M163.763 2197.59L185.942 2293.3C189.617 2309.16 194.268 2331.54 199.897 2360.44L208.839 2358.37C204.869 2328.54 207.548 2312.42 216.876 2309.99C246.391 2301.81 281.697 2292.96 322.796 2283.44C363.006 2274.12 403.203 2265.61 443.385 2257.9C452.831 2255.98 462.329 2269.28 471.881 2297.81C476.438 2297.29 479.419 2296.6 480.824 2295.74C474.389 2271.43 460.825 2214.63 440.131 2125.33C432.899 2094.12 422.133 2071.89 407.833 2058.63C393.533 2045.37 371.911 2035.41 342.968 2028.76C341.174 2030.24 340.039 2032.84 339.565 2036.56C387.789 2049.71 419.088 2087.3 433.462 2149.33L449.38 2218.02C394.242 2232.13 353.861 2242.16 328.238 2248.09L313.483 2186.15C312.219 2180.7 311.932 2175.42 312.62 2170.32C313.279 2165.08 314.236 2160.85 315.492 2157.62C316.592 2154.29 319.301 2150.12 323.62 2145.11C327.939 2140.1 331.127 2136.56 333.184 2134.47C335.115 2132.42 339.318 2128.64 345.793 2123.13C352.268 2117.62 356.437 2113.98 358.299 2112.21C355.739 2108.66 353.453 2106.59 351.442 2105.98C332.818 2123.67 314.436 2134.61 296.297 2138.81C288.433 2140.64 278.444 2141.08 266.332 2140.14C254.19 2139.08 242.794 2136.91 232.143 2133.63C230.602 2135.06 229.527 2137.91 228.916 2142.2C230.927 2142.8 235.202 2143.95 241.743 2145.64C248.254 2147.21 252.515 2148.29 254.526 2148.89C256.381 2149.4 259.915 2150.52 265.128 2152.25C270.312 2153.86 273.841 2155.24 275.716 2156.41C277.591 2157.58 280.403 2159.34 284.153 2161.68C287.747 2163.92 290.438 2166.3 292.226 2168.83C293.858 2171.26 295.544 2174.21 297.285 2177.68C299.025 2181.15 300.366 2184.92 301.306 2188.98C307.626 2216.25 312.164 2236.98 314.919 2251.18C284.223 2258.3 244.026 2266.81 194.33 2276.72L180.308 2216.22C165.934 2154.19 177.509 2106.66 215.033 2073.64C212.971 2070.51 210.744 2068.69 208.352 2068.17C185.415 2086.85 170.442 2105.29 163.431 2123.49C156.421 2141.69 156.532 2166.39 163.763 2197.59ZM237.972 2152.73L220.094 2148.25C221.43 2136.72 224.756 2128.86 230.071 2124.69C241.288 2128.1 253.123 2130.44 265.577 2131.7C277.875 2132.86 287.513 2132.63 294.489 2131.01C311.36 2127.1 329.654 2115.78 349.37 2097.04C356.545 2098.59 362.991 2103.91 368.709 2113.01C362.059 2119.5 356.891 2124.3 353.204 2127.43C345.784 2134.63 340.334 2140.24 336.853 2144.25C333.216 2148.17 329.932 2153.61 327.001 2160.57C324.07 2167.53 323.315 2174.65 324.737 2181.94L332.674 2216.19C360.707 2209.7 394.775 2201.27 434.877 2190.9L425.75 2151.52C418.283 2119.3 405.934 2094.56 388.702 2077.3C371.314 2059.95 351.902 2048.27 330.464 2042.28C331.927 2030.71 335.316 2022.84 340.631 2018.67C372.008 2028.91 400.543 2032.65 426.238 2029.91L462.835 2187.83C474.446 2237.94 483.454 2275.08 489.859 2299.26C482.232 2303.83 474.206 2305.82 465.783 2305.24C456.555 2278.1 449.565 2264.95 444.813 2265.79C404.63 2273.5 364.56 2281.98 324.604 2291.24C283.759 2300.71 248.579 2309.53 219.064 2317.7C214.43 2319.04 213.965 2334.05 217.671 2362.73C209.35 2367.2 201.11 2368.84 192.95 2367.66C185.194 2328.43 179.846 2302.47 176.906 2289.78L134.268 2105.79C158.425 2096.98 182.326 2081.02 205.971 2057.9C212.736 2059.4 219.256 2065.04 225.53 2074.82C209.041 2089.6 196.869 2108.59 189.014 2131.8C181.003 2154.91 180.731 2182.57 188.197 2214.79L195.429 2245.99C241.261 2236.71 276.354 2229.24 300.709 2223.6C299.11 2215.55 296.562 2203.98 293.064 2188.88C290.595 2178.23 285.074 2170.55 276.501 2165.86C267.8 2161.19 254.958 2156.81 237.972 2152.73Z" fill="#FE0000"/>
<path d="M135.933 1887.43L135.934 1887.04C135.432 1878.97 135.196 1868.55 135.226 1855.79C135.272 1836 141.427 1820.91 153.691 1810.52C165.955 1800 181.853 1794.77 201.384 1794.81C221.175 1794.86 238.352 1799.72 252.912 1809.39C267.343 1818.93 274.535 1833.85 274.488 1854.16C274.46 1866.14 272.935 1877.99 269.913 1889.7C224.08 1889.59 179.42 1888.84 135.933 1887.43ZM201.365 1802.82C184.568 1802.78 170.429 1807.83 158.947 1817.96C147.465 1827.96 142.356 1841.23 143.62 1857.77C193.747 1858.92 233.915 1859.54 264.124 1859.61C264.911 1857.01 265.571 1853.04 266.104 1847.7C264.447 1832.46 257.312 1821.18 244.699 1813.86C232.086 1806.54 217.641 1802.86 201.365 1802.82ZM382.72 1925.51C392.355 1925.79 398.57 1940.91 401.365 1970.87C403.446 1971.91 406.505 1971.92 410.544 1970.89C409.815 1948.75 409.477 1926.03 409.531 1902.72C409.596 1874.99 410.049 1848.36 410.889 1822.84C408.808 1821.79 405.749 1821.79 401.71 1822.82C399.005 1866.04 392.704 1887.77 382.808 1888.01C346.216 1889.23 313.532 1889.8 284.756 1889.73C287.786 1875.03 289.315 1861.43 289.344 1848.93C329.107 1827.66 369.277 1799.63 409.853 1764.83C409.868 1758.19 409.955 1748.62 410.115 1736.12C410.274 1723.49 410.431 1712.16 410.585 1702.14C410.739 1691.98 410.956 1682.35 411.238 1673.23C408.897 1672.19 405.837 1672.18 402.058 1673.21C400.446 1694.56 395.196 1712.58 386.307 1727.28C377.289 1741.84 360.713 1758.86 336.579 1778.33C319.751 1791.57 302.015 1803.51 283.37 1814.15C277.035 1794.86 266.458 1779.67 251.64 1768.56C236.822 1757.46 220.104 1751.89 201.484 1751.85C178.046 1751.79 159.084 1759.3 144.595 1774.37C129.977 1789.44 122.636 1810.32 122.574 1837.01C123.411 1925.04 123.308 1969.31 122.265 1969.83C125.388 1970.61 128.448 1970.62 131.444 1969.85C134.379 1939.91 140.664 1924.82 150.3 1924.58C180.902 1923.35 217.296 1922.78 259.484 1922.88C300.76 1922.98 341.839 1923.85 382.72 1925.51ZM382.311 1933.52C349.763 1931.88 308.814 1931 259.465 1930.89C217.538 1930.79 181.274 1931.36 150.672 1932.59C145.854 1932.84 141.979 1947.34 139.047 1976.11C130.448 1978.31 122.05 1978.03 113.854 1975.27C114.668 1960.95 115.095 1945.39 115.134 1928.6C115.173 1911.8 115.088 1892.53 114.878 1870.78C114.669 1849.04 114.576 1833.09 114.599 1822.93C114.673 1791.42 122.738 1766.7 138.796 1748.77C154.723 1730.84 175.642 1721.9 201.554 1721.96C219.913 1722.01 236.828 1727.32 252.298 1737.9C267.768 1748.48 279.454 1762.7 287.355 1780.56C301.828 1771.74 316.696 1761.49 331.958 1749.81C350.349 1736.05 364.964 1722.54 375.802 1709.28C386.641 1695.9 392.86 1681.07 394.461 1664.79C402.799 1662.73 411.197 1663.01 419.654 1665.63C419.09 1684.25 418.489 1718.5 417.852 1768.36C375.059 1804.85 334.888 1833.34 297.34 1853.83L297.327 1859.69C321.545 1859.74 349.932 1859.16 382.487 1857.93C383.268 1857.93 384.05 1857.61 384.833 1856.96C385.616 1856.31 386.859 1853.77 388.562 1849.35C390.265 1844.93 391.778 1838.23 393.101 1829.24C394.294 1820.13 395.022 1815.06 395.285 1814.02C402.582 1811.82 410.589 1812.23 419.305 1815.24C418.152 1863.29 417.563 1892.45 417.539 1902.74C417.523 1909.77 417.986 1934.32 418.93 1976.38C409.938 1979.61 401.54 1979.59 393.735 1976.32C390.936 1948.06 387.128 1933.79 382.311 1933.52Z" fill="#FE0000"/>
<path d="M222.958 1281.71C220.977 1294.62 220.181 1305.07 220.568 1313.06C220.859 1320.88 223.571 1326.68 228.705 1330.43L464.029 1496.42L459.402 1516L175.447 1567.71C163.949 1569.94 154.154 1583.08 146.064 1607.12C137.192 1607.3 129.078 1605.12 121.724 1600.57C137.362 1542.32 149.637 1491.5 158.551 1448.12C166.372 1447.29 174.419 1449.19 182.69 1453.82C180.095 1470.47 179.064 1481.06 179.596 1485.6C180.129 1490.14 182.949 1492.08 188.056 1491.41L354.954 1462.01L217.7 1365.96C215.852 1364.72 213.943 1364.87 211.974 1366.42C209.907 1367.8 207.858 1370.53 205.826 1374.6C203.824 1378.54 201.997 1382.59 200.346 1386.75C198.694 1390.91 196.881 1396.03 194.907 1402.12C186.065 1402.17 177.951 1399.99 170.567 1395.57C181.968 1354.11 191.199 1314.48 198.258 1276.68C206.84 1276.03 215.073 1277.71 222.958 1281.71ZM214.063 1286.23C210.627 1284.35 207.649 1283.65 205.129 1284.12C201.967 1300.9 198.334 1317.97 194.232 1335.33C190.31 1351.93 185.483 1370.66 179.752 1391.51C181.794 1393.07 184.772 1393.77 188.686 1393.63C190.54 1388.04 192.17 1383.41 193.575 1379.73C195.01 1375.92 197.083 1371.39 199.795 1366.15C202.506 1360.9 205.574 1357.54 208.997 1356.08C212.451 1354.49 215.899 1354.9 219.341 1357.32L398.618 1482.77L183.365 1520.61C173.88 1522.25 168.649 1519.47 167.671 1512.29C166.597 1504.94 168.422 1487.31 173.146 1459.39C169.71 1457.51 166.732 1456.81 164.212 1457.28C157.153 1495.08 146.149 1541.65 131.2 1596.99C133.211 1598.67 136.189 1599.37 140.134 1599.1C148.044 1575.82 159.355 1562.77 174.068 1559.96L452.822 1509.02L454.933 1500.09L224.147 1336.98C217.762 1331.73 214.074 1324.97 213.083 1316.71C211.995 1308.29 212.322 1298.13 214.063 1286.23Z" fill="#FE0000"/>
<path d="M626.155 1048.39C622.515 1054.72 618.847 1060.81 615.152 1066.68C611.399 1072.37 607.678 1077.42 603.989 1081.82C600.3 1086.23 596.644 1089.71 593.022 1092.26C589.343 1094.63 585.786 1095.6 582.352 1095.18L295.527 1071.14C294.644 1073.17 294.488 1075.5 295.058 1078.13C309.055 1086.23 318.382 1096.49 323.042 1108.91L335.352 1110.11L483.071 1277.19C492.339 1287.71 492.372 1305.67 483.171 1331.08C484.445 1332.6 485.721 1333.68 486.999 1334.33C488.393 1335.03 489.964 1335.39 491.711 1335.4C497.946 1321.92 502.975 1311.11 506.797 1302.98C510.679 1294.72 513.383 1289.09 514.911 1286.07C516.263 1283.4 519.435 1277.41 524.428 1268.12C529.479 1258.71 536.351 1245.99 545.043 1229.96C544.002 1228.55 542.784 1227.5 541.389 1226.79C540.111 1226.15 538.483 1225.76 536.503 1225.64C530.696 1234.81 525.742 1242.15 521.64 1247.67C517.422 1253.12 513.822 1257.21 510.839 1259.93C507.857 1262.66 505.317 1264.22 503.219 1264.61C501.004 1264.95 498.909 1264.62 496.934 1263.62C495.656 1262.98 494.495 1262.1 493.452 1260.99L442.534 1203.28C448.825 1190.26 453.91 1179.78 457.79 1171.82C461.729 1163.74 464.462 1158.19 465.99 1155.17C469.34 1148.55 472.366 1142.71 475.068 1137.66C477.713 1132.43 480.033 1127.98 482.03 1124.32L558.95 1131.49C560.987 1131.79 562.47 1132.18 563.399 1132.65C566.536 1134.23 568.502 1137.27 569.297 1141.76C570.15 1146.13 569.866 1150.87 568.445 1155.99L561.539 1176.14C562.813 1177.66 564.089 1178.74 565.367 1179.39C566.761 1180.09 568.332 1180.45 570.079 1180.46C574.726 1170.41 579.489 1160.27 584.37 1150.04C589.309 1139.7 594.482 1129.18 599.889 1118.49C605.295 1107.8 610.877 1097.05 616.634 1086.25C622.449 1075.33 628.469 1064.15 634.695 1052.71C633.48 1051.07 632.291 1049.96 631.129 1049.37C630.432 1049.02 629.676 1048.78 628.861 1048.66C628.047 1048.54 627.144 1048.45 626.155 1048.39ZM452.396 1148.29C443.874 1165.14 436.619 1178.91 430.63 1189.6L361.979 1113.29L362.331 1112.59L464.918 1122.67C461.977 1129.06 457.803 1137.6 452.396 1148.29ZM380.455 1122.19L429.034 1175.88C436.842 1162.17 444.775 1146.77 452.831 1129.69L380.455 1122.19ZM622.439 1039.72C630.88 1040.34 638.199 1044.19 644.397 1051.26L574.492 1189.47C565.064 1188.21 557.686 1184.48 552.357 1178.28C558.066 1165.26 561.313 1155.67 562.099 1149.5C562.768 1143.27 560.542 1139.88 555.42 1139.34L486.183 1132.99C474.497 1154.07 463.093 1177.2 451.971 1202.36L498.289 1254.02C499.911 1255.72 501.977 1256.11 504.485 1255.19C506.936 1254.09 509.654 1251.74 512.641 1248.15C515.627 1244.55 518.792 1240.17 522.135 1235C525.478 1229.84 529 1223.88 532.699 1217.15C541.14 1217.77 548.459 1221.61 554.657 1228.69C533.987 1266.09 514.564 1304.5 496.388 1343.89C487.017 1343.09 479.58 1339.48 474.078 1333.05C483.395 1307.7 485.013 1291.52 478.931 1284.5L331.213 1117.42C330.049 1117.42 327.487 1117.29 323.528 1117.04C319.512 1116.61 316.923 1116.25 315.759 1115.96C311.164 1102.25 301.84 1091.26 287.786 1082.98C287.961 1070.23 291.197 1056.77 297.494 1042.59L589.555 1067.52C596.133 1068.07 601.556 1066.44 605.824 1062.62C609.977 1058.73 615.515 1051.1 622.439 1039.72Z" fill="#FE0000"/>
<path d="M572.193 804.004C562.451 808.279 554.26 809.324 547.622 807.141C542.866 791.968 539.649 781.807 537.972 776.657C536.385 771.416 533.226 764.154 528.493 754.874C523.76 745.41 518.247 736.639 511.954 728.561L607.28 632.473L721.863 516.972C742.273 532.635 768.515 544.362 800.587 552.152C802.915 558.68 801.613 567.202 796.683 577.718C775.391 571.634 752.832 571.447 729.008 577.159C705.184 582.686 681.625 597.189 658.332 620.668C680.523 644.15 707.333 671.481 738.762 702.66C778.88 742.459 808.595 771.021 827.907 788.346C831.51 791.554 844.462 783.953 866.762 765.541C874.237 769.839 880.016 775.939 884.099 783.841C853.647 813.057 835.991 830.114 831.131 835.014C823.795 842.409 803.623 863.481 770.615 898.232C761.945 894.215 755.982 888.3 752.729 880.487C770.595 858.411 778.002 845.675 774.95 842.281C752.573 818.247 723.682 788.669 688.279 753.547C658.699 724.202 631.433 697.886 606.481 674.599C573.324 718.005 561.894 761.14 572.193 804.004ZM558.016 712.081L604.774 662.176C636.38 691.697 666.095 720.259 693.919 747.862C729.692 783.351 758.582 812.929 780.59 836.596C787.247 843.567 781.046 858.691 761.988 881.97C762.733 884.176 764.906 886.331 768.505 888.435C783.54 872.17 799.265 855.765 815.68 839.218C835.212 819.529 854.243 800.901 872.772 783.333C871.841 780.943 869.669 778.788 866.255 776.868C833.961 805.723 814.209 816.759 807 809.974C775.394 780.453 745.587 751.799 717.578 724.013C681.99 688.707 653.192 659.221 631.184 635.554L652.923 614.751C699.7 569.818 746.135 554.257 792.226 568.068C793.685 564.748 793.997 561.938 793.159 559.64C765.131 550.176 741.549 547.324 722.413 551.083C703.277 554.842 682.476 568.045 660.008 590.692L612.964 638.112C602.969 648.188 587.837 663.348 567.57 683.593C547.303 703.837 532.263 718.905 522.451 728.796C525.227 732.283 527.866 736.186 530.37 740.503C532.873 744.821 534.913 748.588 536.491 751.804C538.069 754.836 539.882 759.202 541.93 764.902C544.07 770.51 545.512 774.325 546.257 776.348C546.909 778.279 548.307 782.601 550.452 789.314C552.688 795.934 553.9 799.704 554.088 800.624C556.393 801.443 559.245 801.064 562.646 799.485C558.341 782.193 555.389 769.176 553.789 760.436C552.189 751.695 551.462 742.537 551.608 732.961C551.753 723.201 553.889 716.241 558.016 712.081Z" fill="#FE0000"/>
<path d="M955.192 386.156C947.009 392.001 940.558 398.702 935.84 406.26C931.121 413.818 927.878 421.93 926.11 430.598C924.274 439.155 923.668 448.111 924.29 457.466C924.957 466.642 926.506 475.895 928.937 485.224C931.48 494.486 934.748 503.691 938.742 512.838C942.78 521.806 947.253 530.361 952.16 538.501C957.068 546.642 962.578 554.647 968.691 562.517C974.848 570.208 981.483 577.306 988.598 583.812C995.713 590.318 1003.17 596.008 1010.98 600.882C1018.89 605.689 1027.06 609.278 1035.48 611.65C1043.95 613.843 1052.54 614.595 1061.25 613.907C1070.07 613.152 1078.91 610.554 1087.79 606.114C1096.09 600.201 1102.63 593.522 1107.41 586.076C1112.13 578.518 1115.44 570.517 1117.34 562.072C1119.29 553.449 1119.93 544.548 1119.26 535.372C1118.64 526.017 1117.09 516.764 1114.62 507.614C1112.19 498.285 1108.95 489.136 1104.91 480.167C1100.92 471.02 1096.5 462.432 1091.66 454.403C1086.76 446.263 1081.22 438.347 1075.07 430.656C1068.95 422.786 1062.34 415.598 1055.23 409.092C1048.15 402.408 1040.66 396.662 1032.75 391.855C1024.88 386.87 1016.67 383.225 1008.14 380.92C999.714 378.548 991.004 377.718 982.006 378.429C973.12 379.073 964.182 381.648 955.192 386.156ZM1086.27 616.836C1075.23 623.491 1064.39 627.824 1053.74 629.833C1043.03 631.731 1032.65 631.909 1022.59 630.367C1012.59 628.646 1002.95 625.406 993.699 620.647C984.556 615.82 975.891 610.021 967.704 603.25C959.561 596.3 952.031 588.6 945.113 580.151C938.128 571.591 931.946 562.85 926.568 553.929C921.19 545.008 916.381 535.517 912.139 525.454C907.83 515.281 904.504 504.971 902.16 494.525C899.816 484.079 898.666 473.597 898.711 463.08C898.756 452.562 900.354 442.476 903.505 432.823C906.656 423.169 911.572 414.048 918.253 405.459C925.046 396.803 933.962 389.147 945.002 382.492C955.149 376.375 965.246 372.569 975.291 371.074C985.27 369.468 995.018 369.749 1004.54 371.917C1014.1 373.907 1023.37 377.438 1032.36 382.511C1041.35 387.583 1049.8 393.662 1057.72 400.747C1065.75 407.764 1073.2 415.586 1080.08 424.214C1086.99 432.663 1093.14 441.348 1098.52 450.269C1103.9 459.19 1108.76 468.648 1113.12 478.643C1117.4 488.526 1120.77 498.657 1123.23 509.036C1125.73 519.236 1127.12 529.494 1127.41 539.81C1127.75 549.947 1126.56 559.708 1123.86 569.093C1121.15 578.477 1116.79 587.262 1110.78 595.448C1104.7 603.522 1096.53 610.651 1086.27 616.836ZM1093.53 628.879C1101.23 624.241 1109.07 618.452 1117.05 611.513C1125.03 604.574 1132.28 596.553 1138.8 587.451C1145.44 578.281 1150.96 568.031 1155.38 556.7C1159.8 545.37 1162.28 533.083 1162.81 519.839C1163.39 506.418 1161.64 492.04 1157.56 476.708C1153.42 461.264 1146.17 444.955 1135.82 427.782C1125.67 410.944 1114.8 397.2 1103.21 386.55C1091.67 375.721 1079.88 367.394 1067.85 361.569C1055.83 355.743 1043.8 352.05 1031.76 350.49C1019.72 348.93 1008.06 348.887 996.786 350.362C985.445 351.726 974.754 354.294 964.713 358.066C954.716 361.66 945.759 365.843 937.842 370.616C930.148 375.255 922.143 381.144 913.829 388.285C905.447 395.314 897.716 403.548 890.634 412.987C883.486 422.313 877.423 432.81 872.445 444.477C867.467 456.144 864.468 468.823 863.447 482.514C862.426 496.205 863.852 510.929 867.726 526.686C871.533 542.332 878.713 558.908 889.267 576.416C899.486 593.366 910.445 607.132 922.146 617.715C933.959 628.23 946.045 636.3 958.406 641.923C970.699 647.436 983.088 650.838 995.574 652.129C1008.1 653.242 1020.23 652.926 1031.95 651.182C1043.67 649.438 1054.77 646.546 1065.26 642.504C1075.75 638.463 1085.17 633.921 1093.53 628.879ZM1103.93 632.877C1081.51 646.389 1059.68 655.066 1038.43 658.906C1017.25 662.858 997.181 662.487 978.235 657.793C959.222 652.987 941.606 644.069 925.39 631.039C909.105 617.898 894.779 601.068 882.409 580.55C870.04 560.032 861.88 539.561 857.93 519.136C853.912 498.601 854.25 478.86 858.945 459.913C863.572 440.856 872.578 422.883 885.964 405.996C899.282 388.997 917.148 373.741 939.562 360.229C960.638 347.523 981.578 339.005 1002.38 334.674C1023.3 330.276 1043.33 330.212 1062.47 334.482C1081.66 338.573 1099.66 347.11 1116.45 360.094C1133.36 373.01 1148.41 390.397 1161.58 412.253C1174.82 434.221 1183.21 455.697 1186.74 476.68C1190.31 497.485 1189.46 517.383 1184.18 536.375C1179.02 555.3 1169.58 572.927 1155.85 589.257C1142.31 605.632 1125 620.172 1103.93 632.877Z" fill="#FE0000"/>
<path d="M1224.28 262.199C1222.67 257.651 1207.66 258.067 1179.25 263.448C1176.98 259.906 1175.32 256.325 1174.25 252.703C1173.04 248.581 1172.56 243.97 1172.82 238.87C1183.82 235.634 1198.79 231.632 1217.75 226.864C1236.79 221.935 1250 218.386 1257.37 216.216C1262.74 214.634 1273.07 211.456 1288.36 206.683C1303.65 201.909 1316.92 197.867 1328.16 194.557C1330.51 197.937 1332.26 201.562 1333.4 205.434C1334.46 209.057 1335.1 213.076 1335.32 217.492C1308.52 228.368 1295.68 236.154 1296.79 240.849C1298.87 249.739 1312.06 295.466 1336.37 378.029C1345.64 409.505 1357.41 431.285 1371.69 443.368C1385.98 455.451 1404.79 458.734 1428.14 453.215C1451.93 444.581 1468.01 430.277 1476.38 410.302C1484.84 390.166 1484.82 365.671 1476.33 336.818C1458.86 277.487 1445.33 232.944 1435.76 203.187C1433.71 197.14 1418.81 196.098 1391.06 200.06C1389.18 197.356 1387.78 194.443 1386.86 191.32C1385.76 187.573 1385.32 182.882 1385.57 177.246C1421.21 167.836 1442.46 162.12 1449.33 160.097C1462.7 156.162 1479.64 150.767 1500.15 143.912C1503.48 148.768 1505.52 152.445 1506.25 154.944C1507.39 158.816 1507.66 162.945 1507.05 167.332C1481.93 177.444 1470.22 185.846 1471.92 192.54C1477.77 217.014 1490.29 261.852 1509.49 327.053C1515.23 346.538 1517.78 364.654 1517.15 381.401C1516.47 398.022 1513.5 412.131 1508.23 423.728C1503.08 435.288 1496.15 445.611 1487.42 454.696C1478.69 463.781 1469.77 470.819 1460.65 475.812C1451.57 480.929 1442.04 484.958 1432.04 487.901C1412.06 493.785 1394.23 497.068 1378.54 497.749C1363.03 498.518 1347.88 496.19 1333.12 490.764C1318.48 485.302 1305.58 474.916 1294.42 459.606C1283.26 444.296 1273.95 423.963 1266.49 398.607C1248.5 337.528 1234.43 292.059 1224.28 262.199ZM1267.83 248.97C1265.28 239.404 1284.38 227.266 1325.11 212.557C1325.16 209.963 1324.28 206.966 1322.46 203.564C1290.07 214.324 1264.69 222.408 1246.33 227.814C1230.96 232.338 1209 238.194 1180.44 245.382C1180.14 248.049 1181.03 251.047 1183.09 254.375C1188.86 253.22 1193.63 252.359 1197.4 251.792C1201.17 251.225 1205.86 250.793 1211.47 250.498C1217.09 250.202 1221.63 250.899 1225.12 252.588C1228.69 254.115 1230.97 256.565 1231.97 259.937C1244.87 299.165 1258.94 344.634 1274.17 396.345C1281.16 420.077 1289.91 439.216 1300.44 453.762C1310.93 468.183 1323.11 477.967 1336.98 483.114C1350.93 488.099 1365.13 490.229 1379.58 489.504C1394.19 488.868 1410.92 485.773 1429.78 480.219C1439.02 477.497 1447.89 473.732 1456.39 468.924C1465.04 464.204 1473.41 457.599 1481.5 449.11C1489.59 440.62 1496.05 430.981 1500.88 420.193C1505.8 409.242 1508.52 395.886 1509.03 380.125C1509.55 364.363 1507.14 347.426 1501.81 329.315C1484.19 269.485 1471.63 224.522 1464.13 194.427C1461.39 183.288 1473.2 172.479 1499.57 162C1499.95 159.582 1499.08 156.647 1496.98 153.194C1473.72 160.858 1457.09 166.161 1447.1 169.103C1431.49 173.701 1413.58 178.567 1393.37 183.702C1392.96 185.995 1393.82 188.93 1395.96 192.508C1424.05 186.952 1439.84 189.632 1443.33 200.551C1452.91 230.307 1466.47 274.976 1484.01 334.556C1493.65 367.281 1493.25 394.749 1482.82 416.958C1472.48 439.005 1452.82 454.295 1423.85 462.828C1392.37 472.096 1367.7 470.605 1349.84 458.354C1332.11 446.066 1318 422.123 1307.52 386.525C1285.52 311.831 1272.29 265.979 1267.83 248.97Z" fill="#FE0000"/>
<path d="M1690.6 145.993L1690.99 145.976C1699.03 145.09 1709.42 144.357 1722.17 143.779C1741.94 142.883 1757.31 148.312 1768.27 160.067C1779.36 171.816 1785.34 187.446 1786.23 206.957C1787.13 226.729 1783.09 244.117 1774.13 259.122C1765.29 273.991 1750.72 281.885 1730.43 282.806C1718.46 283.348 1706.56 282.389 1694.72 279.929C1692.64 234.142 1691.27 189.497 1690.6 145.993ZM1778.23 207.32C1777.47 190.54 1771.76 176.657 1761.09 165.671C1750.56 154.679 1737.06 150.208 1720.6 152.258C1721.83 202.384 1723.13 242.535 1724.5 272.712C1727.13 273.375 1731.13 273.845 1736.49 274.124C1751.63 271.743 1762.56 264.078 1769.27 251.131C1775.98 238.183 1778.97 223.579 1778.23 207.32ZM1664.32 394.314C1664.5 403.951 1649.69 410.879 1619.9 415.098C1618.96 417.226 1619.1 420.283 1620.32 424.268C1642.4 422.484 1665.08 421.065 1688.36 420.009C1716.07 418.752 1742.68 417.936 1768.21 417.56C1769.16 415.432 1769.02 412.375 1767.8 408.39C1724.5 407.747 1702.49 402.489 1701.78 392.615C1698.82 356.123 1696.69 323.504 1695.39 294.757C1710.22 297.082 1723.88 297.962 1736.37 297.395C1759.5 336.1 1789.41 374.889 1826.11 413.761C1832.74 413.46 1842.31 413.092 1854.8 412.656C1867.42 412.213 1878.74 411.83 1888.77 411.506C1898.92 411.176 1908.55 410.934 1917.67 410.782C1918.6 408.393 1918.47 405.336 1917.25 401.611C1895.85 401.018 1877.6 396.632 1862.5 388.454C1847.52 380.139 1829.74 364.393 1809.13 341.214C1795.1 325.036 1782.33 307.888 1770.83 289.772C1789.79 282.525 1804.46 271.236 1814.84 255.906C1825.23 240.576 1830 223.611 1829.15 205.01C1828.09 181.597 1819.69 163.013 1803.95 149.259C1788.2 135.375 1766.99 129.038 1740.32 130.247C1652.44 135.276 1608.22 137.282 1607.65 136.265C1607.01 139.422 1607.15 142.479 1608.06 145.435C1638.11 146.94 1653.48 152.499 1654.18 162.113C1656.87 192.621 1659.17 228.948 1661.08 271.092C1662.95 312.326 1664.03 353.4 1664.32 394.314ZM1656.3 394.286C1656.39 361.697 1655.31 320.753 1653.08 271.455C1651.18 229.571 1648.88 193.375 1646.2 162.866C1645.72 158.065 1631.04 154.886 1602.17 153.328C1599.56 144.843 1599.44 136.441 1601.8 128.123C1616.15 128.254 1631.71 127.94 1648.49 127.179C1665.27 126.418 1684.51 125.414 1706.22 124.169C1727.94 122.924 1743.86 122.071 1754.01 121.611C1785.49 120.183 1810.56 127.062 1829.24 142.247C1847.91 157.302 1857.83 177.772 1859.01 203.657C1859.84 221.997 1855.34 239.146 1845.5 255.102C1835.67 271.059 1822.02 283.409 1804.56 292.152C1814.06 306.189 1825.01 320.551 1837.41 335.239C1852.03 352.954 1866.21 366.909 1879.97 377.103C1893.86 387.292 1908.97 392.798 1925.3 393.622C1927.76 401.852 1927.88 410.254 1925.66 418.826C1907.04 419.15 1872.8 420.181 1822.96 421.92C1784.47 380.913 1754.11 342.145 1731.85 305.616L1726 305.881C1727.1 330.075 1729.03 358.402 1731.81 390.862C1731.85 391.642 1732.21 392.408 1732.89 393.159C1733.58 393.91 1736.17 395.03 1740.67 396.521C1745.17 398.011 1751.94 399.203 1760.97 400.097C1770.13 400.855 1775.23 401.34 1776.29 401.553C1778.83 408.737 1778.8 416.754 1776.2 425.605C1728.16 426.741 1699 427.542 1688.72 428.008C1681.7 428.327 1657.2 429.959 1615.24 432.905C1611.58 424.078 1611.2 415.688 1614.09 407.736C1642.19 403.594 1656.26 399.111 1656.3 394.286Z" fill="#FE0000"/>
<path d="M2101.99 135.86C2120.36 138.884 2136.83 144.233 2151.4 151.91C2165.98 159.586 2179.3 165.21 2191.38 168.781C2180.64 191.558 2176.14 217.276 2177.89 245.935C2170.43 250.382 2162.39 252.357 2153.76 251.861C2153.13 249.251 2152.11 243.869 2150.68 235.716C2149.4 227.456 2147.95 220.62 2146.33 215.207C2144.84 209.816 2142.51 203.56 2139.33 196.438C2136.27 189.337 2131.58 183.353 2125.26 178.486C2119.08 173.511 2111.68 169.587 2103.04 166.715C2089.88 165.736 2079.2 168.07 2071.01 173.716C2062.83 179.363 2057.85 187.583 2056.07 198.375C2054.25 209.424 2055.58 219.011 2060.05 227.137C2064.54 235.133 2070.98 241.67 2079.38 246.748C2087.94 251.718 2097.45 256.45 2107.93 260.946C2118.42 265.312 2128.75 270.311 2138.91 275.941C2149.09 281.443 2158.17 288.018 2166.15 295.665C2174.28 303.204 2180.17 313.478 2183.84 326.485C2187.5 339.493 2187.91 354.669 2185.06 372.014C2181.59 393.085 2172.5 410.196 2157.8 423.348C2143.1 436.5 2126.93 444.989 2109.28 448.814C2091.62 452.639 2074.12 453.125 2056.78 450.27C2018.62 443.991 1982.23 429.36 1947.61 406.376C1951.11 389.929 1953.17 379.843 1953.78 376.117C1957.21 355.303 1958.89 332.62 1958.84 308.067C1971.32 304.445 1984.27 306.313 1997.71 313.671C1997.66 343.618 2003.17 367.485 2014.23 385.272C2025.42 403.081 2039.02 414.227 2055.05 418.711C2070.5 420.199 2083.07 417.187 2092.75 409.675C2102.59 402.055 2108.63 391.372 2110.9 377.625C2112.8 366.061 2111.71 355.853 2107.62 346.999C2103.56 338.017 2097.45 330.612 2089.31 324.785C2081.18 318.829 2072.21 313.196 2062.4 307.887C2052.71 302.598 2042.93 297.095 2033.05 291.378C2023.19 285.533 2014.29 279.055 2006.36 271.943C1998.55 264.852 1992.78 255.788 1989.06 244.75C1985.33 233.712 1984.66 220.934 1987.05 206.415C1989.21 193.31 1993.2 181.893 1999.02 172.162C2004.97 162.453 2011.81 155.001 2019.53 149.804C2027.37 144.629 2036.14 140.662 2045.83 137.902C2055.65 135.163 2065.12 133.752 2074.24 133.67C2083.49 133.608 2092.74 134.338 2101.99 135.86ZM2100.69 143.762C2089.89 141.986 2079.21 141.548 2068.64 142.447C2058.09 143.218 2047.53 145.637 2036.96 149.704C2026.52 153.793 2017.52 160.822 2009.94 170.791C2002.36 180.761 1997.36 193.069 1994.95 207.716C1992.82 220.692 1993.68 232.314 1997.53 242.581C2001.4 252.72 2007.29 261.077 2015.18 267.654C2023.2 274.252 2032.15 280.41 2042.03 286.126C2051.93 291.714 2061.69 297.345 2071.31 303.02C2081.06 308.715 2089.96 314.798 2098 321.267C2106.04 327.737 2112.02 335.912 2115.94 345.794C2119.87 355.547 2120.83 366.591 2118.8 378.925C2115.98 396.013 2108.25 408.926 2095.6 417.664C2082.94 426.402 2066.59 429.122 2046.55 425.824C2027.28 422.653 2010.68 411.673 1996.75 392.886C1982.81 374.099 1975.85 348.276 1975.84 315.417C1973.55 313.324 1970.53 312.827 1966.79 313.927C1966.94 334.669 1965.23 355.832 1961.68 377.417C1960.69 383.456 1959.03 391.957 1956.69 402.922C1986.13 422.941 2015.3 435.328 2044.2 440.086C2068.1 444.018 2091.36 440.588 2113.99 429.796C2136.64 418.875 2150.06 400.631 2154.27 375.063C2156.66 360.545 2155.85 347.81 2151.85 336.858C2147.86 325.778 2141.78 316.661 2133.58 309.506C2125.39 302.352 2116.18 295.821 2105.93 289.912C2095.69 284.004 2085.46 278.363 2075.26 272.989C2065.08 267.488 2055.8 261.738 2047.42 255.74C2039.17 249.763 2032.89 242.198 2028.59 233.045C2024.31 223.764 2023.15 213.213 2025.09 201.393C2027.82 184.819 2035.58 172.505 2048.39 164.451C2061.2 156.398 2077.88 154.062 2098.43 157.445C2134.15 163.323 2154.69 192.104 2160.04 243.789C2163.91 245.086 2166.82 244.642 2168.77 242.454C2169.69 210.407 2164 186.84 2151.7 171.753C2139.53 156.686 2122.53 147.356 2100.69 143.762Z" fill="#FE0000"/>
<path d="M2591.56 619.746C2585.18 616.204 2579.03 612.631 2573.1 609.026C2567.36 605.361 2562.25 601.718 2557.79 598.097C2553.32 594.476 2549.79 590.875 2547.19 587.292C2544.76 583.649 2543.73 580.108 2544.11 576.668L2563.73 289.508C2561.68 288.656 2559.35 288.536 2556.74 289.146C2548.85 303.266 2538.73 312.75 2526.38 317.6L2525.38 329.927L2360.59 480.197C2350.21 489.627 2332.25 489.936 2306.7 481.126C2305.2 482.424 2304.14 483.716 2303.51 485.004C2302.83 486.409 2302.5 487.985 2302.52 489.732C2316.09 495.759 2326.98 500.621 2335.17 504.318C2343.48 508.072 2349.16 510.69 2352.2 512.171C2354.89 513.481 2360.92 516.561 2370.29 521.41C2379.78 526.316 2392.6 532.992 2408.77 541.437C2410.15 540.373 2411.19 539.139 2411.87 537.734C2412.5 536.447 2412.86 534.812 2412.96 532.831C2403.69 527.166 2396.28 522.325 2390.7 518.308C2385.18 514.175 2381.04 510.638 2378.27 507.698C2375.5 504.757 2373.9 502.241 2373.47 500.15C2373.1 497.941 2373.4 495.841 2374.36 493.851C2374.99 492.563 2375.85 491.389 2376.95 490.329L2433.87 438.529C2446.98 444.619 2457.54 449.542 2465.56 453.3C2473.7 457.114 2479.28 459.761 2482.33 461.243C2489 464.49 2494.89 467.426 2499.98 470.05C2505.25 472.614 2509.73 474.866 2513.42 476.806L2507.43 553.827C2507.16 555.868 2506.8 557.357 2506.35 558.294C2504.81 561.455 2501.8 563.468 2497.33 564.331C2492.97 565.251 2488.22 565.04 2483.08 563.698L2462.83 557.102C2461.33 558.4 2460.27 559.692 2459.64 560.98C2458.96 562.385 2458.63 563.961 2458.65 565.708C2468.77 570.2 2478.98 574.807 2489.28 579.529C2499.7 584.309 2510.29 589.32 2521.06 594.561C2531.83 599.803 2542.67 605.219 2553.56 610.809C2564.57 616.455 2575.84 622.303 2587.38 628.352C2588.99 627.111 2590.09 625.906 2590.66 624.735C2591 624.033 2591.22 623.273 2591.33 622.457C2591.44 621.64 2591.52 620.737 2591.56 619.746ZM2489 447.544C2472.02 439.283 2458.14 432.24 2447.36 426.416L2522.61 356.599L2523.31 356.941L2514.81 459.671C2508.37 456.828 2499.77 452.786 2489 447.544ZM2513.99 375.211L2461.06 424.609C2474.88 432.206 2490.4 439.901 2507.6 447.694L2513.99 375.211ZM2600.17 615.898C2599.68 624.347 2595.94 631.725 2588.97 638.031L2449.7 570.259C2450.82 560.813 2454.44 553.378 2460.55 547.955C2473.65 553.463 2483.3 556.562 2489.48 557.253C2495.71 557.826 2499.07 555.548 2499.54 550.418L2504.82 481.092C2483.56 469.732 2460.26 458.685 2434.93 447.951L2383.99 495.058C2382.31 496.706 2381.96 498.777 2382.92 501.271C2384.05 503.705 2386.44 506.387 2390.08 509.318C2393.72 512.248 2398.15 515.345 2403.37 518.609C2408.59 521.872 2414.59 525.301 2421.39 528.897C2420.9 537.346 2417.16 544.724 2410.18 551.03C2372.46 530.937 2333.77 512.107 2294.1 494.539C2294.75 485.157 2298.25 477.665 2304.6 472.065C2330.08 480.991 2346.29 482.36 2353.21 476.171L2518 325.901C2517.99 324.737 2518.07 322.173 2518.26 318.211C2518.63 314.189 2518.95 311.594 2519.23 310.427C2532.86 305.621 2543.71 296.129 2551.77 281.95C2564.52 281.929 2578.03 284.957 2592.31 291.035L2571.87 583.445C2571.42 590.031 2573.13 595.428 2577.02 599.637C2580.97 603.729 2588.68 609.15 2600.17 615.898Z" fill="#FE0000"/>
<path d="M2873.01 697.499L2889.42 677.864C2908.7 654.782 2930.87 627.235 2955.91 595.223C2960.14 589.76 2952.16 577.072 2931.98 557.158C2933.5 552.491 2935.47 548.709 2937.9 545.812C2939.4 544.013 2942.64 541.55 2947.63 538.422C2962.32 551.711 2977.31 564.741 2992.6 577.514C3007.99 590.371 3024.02 603.261 3040.71 616.186C3038.52 621.651 3036.68 625.283 3035.17 627.082C3032.75 629.98 3029.38 632.593 3025.06 634.921C3002.71 619.639 2989.3 614.462 2984.84 619.392C2965.93 639.39 2939.52 669.674 2905.63 710.244C2867.4 756.009 2837.12 793.574 2814.79 822.938L2802.25 812.969L2805.39 520.113C2803.89 521.912 2801.08 525.168 2796.98 529.881C2792.95 534.494 2789.85 538.099 2787.68 540.697C2747.36 588.961 2713.66 630.622 2686.57 665.682C2682.27 671.245 2690.2 683.983 2710.38 703.898C2708.86 708.564 2706.89 712.346 2704.47 715.244C2702.63 717.442 2699.22 720.105 2694.23 723.233C2679.34 709.777 2664.35 696.746 2649.26 684.141C2633.88 671.284 2617.84 658.394 2601.15 645.469C2603.34 640.004 2605.35 636.172 2607.19 633.973C2609.61 631.076 2612.98 628.462 2617.3 626.134C2639.66 641.416 2653.1 646.543 2657.65 641.514C2676.38 621.531 2702.69 591.256 2736.58 550.686C2762.54 519.61 2785.31 491.547 2804.88 466.497C2802.64 455.975 2795.3 444.662 2782.84 432.56C2783.6 428.61 2785.44 424.886 2788.36 421.389C2791.45 417.691 2795.19 415.137 2799.6 413.725C2819.65 432.173 2845.61 454.712 2877.48 481.342L2873.01 697.499ZM2899.49 705.11C2924.78 674.832 2951.18 644.548 2978.7 614.257C2986.61 605.598 3002.24 609.327 3025.6 625.444C3027.82 624.413 3029.78 622.065 3031.48 618.4C3012.1 603.221 2998.46 592.334 2990.56 585.739C2978.07 575.304 2964.08 563.108 2948.59 549.151C2945.29 551.481 2943.33 553.829 2942.71 556.196C2962.92 576.477 2969.37 591.197 2962.06 600.358C2937.01 632.369 2914.85 659.916 2895.56 682.998C2884.29 696.488 2868.9 714.507 2849.38 737.056L2852.41 470.833C2829.93 452.049 2811.63 436.08 2797.51 422.926C2794.71 424.656 2792.74 427.004 2791.62 429.97C2803.85 441.539 2811.07 454.527 2813.28 468.934C2793.79 493.883 2770.28 522.845 2742.73 555.82C2717.43 586.097 2691.12 616.373 2663.79 646.648C2655.79 655.407 2640.12 651.728 2616.77 635.611C2614.63 636.542 2612.67 638.89 2610.88 642.656C2630.17 657.751 2643.81 668.638 2651.8 675.316C2664.29 685.751 2678.28 697.947 2693.77 711.904C2697.15 709.474 2699.12 707.126 2699.65 704.86C2679.44 684.578 2673.03 669.808 2680.43 660.548C2705.39 628.636 2727.52 601.139 2746.8 578.057C2768.84 551.677 2790.97 525.797 2813.19 500.418L2814.69 501.67L2810.38 809.328L2813.48 811.408C2832 787.007 2860.67 751.574 2899.49 705.11Z" fill="#FE0000"/>
<path d="M3148.84 780.915C3158.54 791.416 3168.01 803.046 3177.25 815.806C3187.41 829.831 3194.28 843.983 3197.88 858.263C3201.54 872.649 3202.38 885.79 3200.39 897.686C3198.57 909.61 3194.58 921.186 3188.4 932.413C3182.23 943.64 3175.11 953.459 3167.05 961.868C3159.18 970.306 3150.39 978.039 3140.69 985.066C3108.73 1008.21 3076.67 1017.77 3044.49 1013.75C3012.32 1009.72 2984.01 990.838 2959.56 957.095L2941.09 930.925C2984.09 898.171 3016.39 873.964 3038.01 858.305C3077.13 829.966 3114.08 804.17 3148.84 780.915ZM2947.76 978.425C2922.17 943.1 2896.2 908.133 2869.84 873.524C2875.21 865.617 2882.01 860.69 2890.25 858.743C2909.14 879.945 2920.62 889.238 2924.67 886.623C2958.7 863.903 2992.32 840.513 3025.54 816.452C3059.49 791.856 3088.48 770.055 3112.5 751.05C3116.24 748.013 3110.84 734.002 3096.28 709.017C3101.73 702.336 3108.68 697.62 3117.14 694.87C3126.32 707.993 3155.47 748.456 3204.59 816.26C3215.21 830.917 3224.05 845.011 3231.12 858.542C3238.26 872.178 3243.71 887.362 3247.47 904.093C3251.34 920.748 3252.06 936.622 3249.65 951.714C3247.24 966.806 3240.59 982.479 3229.69 998.733C3218.79 1014.99 3203.38 1030.33 3183.45 1044.77C3164.47 1058.52 3145.32 1067.48 3126 1071.67C3106.69 1075.86 3088.77 1075.97 3072.24 1072.03C3055.79 1068.19 3039.59 1061.35 3023.63 1051.53C3007.78 1041.63 2993.87 1030.64 2981.9 1018.57C2969.84 1006.57 2958.46 993.188 2947.76 978.425ZM3160.79 809.399C3122.86 834.945 3087.82 859.366 3055.65 882.664C3029.5 901.607 2999.18 924.219 2964.67 950.499C2989.58 983.104 3016.97 1001.28 3046.86 1005.03C3076.75 1008.79 3106.46 999.969 3135.99 978.581C3147.48 970.255 3157.46 960.94 3165.91 950.636C3174.47 940.256 3181.53 928.47 3187.08 915.28C3192.64 902.089 3194.28 887.479 3191.99 871.449C3189.89 855.448 3183.39 839.492 3172.51 823.58C3168.77 818.413 3164.86 813.686 3160.79 809.399ZM2879.85 873.026C2896.91 895.239 2918.99 925.063 2946.11 962.497C2955.81 975.889 2966.17 988.081 2977.19 999.073C2988.39 1010.09 3001.39 1020.05 3016.19 1028.94C3030.99 1037.84 3046.01 1043.92 3061.24 1047.19C3076.48 1050.47 3093.29 1050.03 3111.66 1045.88C3130.12 1041.84 3148.31 1033.32 3166.24 1020.34C3243.32 964.501 3251.19 894.245 3189.86 809.569C3184.2 801.766 3176.02 790.808 3165.32 776.696C3154.61 762.584 3145.02 749.676 3136.54 737.971C3128.14 726.372 3120.48 715.123 3113.55 704.225C3111.04 704.757 3108.56 706.552 3106.11 709.61C3121.36 735.544 3125.16 751.443 3117.51 757.306C3093.49 776.311 3064.4 798.188 3030.24 822.937C2996.81 847.151 2963.08 870.618 2929.05 893.337C2921.1 898.779 2907.18 890.213 2887.29 867.64C2884.1 868.343 2881.62 870.138 2879.85 873.026Z" fill="#FE0000"/>
<path d="M3317.82 1194.79C3318.53 1184.17 3321.39 1176.43 3326.39 1171.55C3342.04 1174.34 3352.54 1176.19 3357.88 1177.08C3363.26 1178.1 3371.16 1178.65 3381.58 1178.74C3392.16 1178.92 3402.49 1178.08 3412.56 1176.24L3453.71 1305.18L3503.18 1460.17C3479.86 1471.03 3457.33 1488.88 3435.6 1513.72C3428.74 1512.77 3421.78 1507.68 3414.73 1498.45C3429.97 1482.38 3440.56 1462.46 3446.51 1438.69C3452.62 1415.01 3450.64 1387.41 3440.59 1355.91C3409.51 1364.73 3372.88 1375.88 3330.71 1389.34C3276.87 1406.52 3237.81 1419.67 3213.52 1428.79C3209.01 1430.5 3209.76 1445.5 3215.79 1473.79C3208.52 1478.43 3200.44 1480.74 3191.55 1480.7C3179.71 1440.2 3172.74 1416.66 3170.65 1410.08C3167.48 1400.16 3158.11 1372.53 3142.55 1327.2C3150.12 1321.37 3158.12 1318.81 3166.55 1319.54C3177.87 1345.59 3185.74 1358.04 3190.17 1356.9C3221.82 1348.17 3261.4 1336.22 3308.91 1321.05C3348.6 1308.38 3384.54 1296.37 3416.73 1285C3393.56 1235.54 3360.59 1205.47 3317.82 1194.79ZM3405.88 1224.7L3428.53 1289.23C3387.74 1303.61 3348.68 1316.76 3311.35 1328.68C3263.34 1344 3223.76 1355.95 3192.6 1364.53C3183.34 1367.21 3172.79 1354.72 3160.96 1327.07C3158.66 1326.71 3155.74 1327.64 3152.21 1329.86C3159.69 1350.71 3166.97 1372.23 3174.06 1394.44C3182.49 1420.86 3190.21 1446.34 3197.23 1470.89C3199.78 1471.17 3202.69 1470.24 3205.97 1468.1C3195.31 1426.13 3194.65 1403.51 3204 1400.26C3244.79 1385.87 3283.97 1372.68 3321.56 1360.68C3369.32 1345.44 3408.77 1333.53 3439.93 1324.95L3448.33 1353.85C3466.56 1416.09 3458.9 1464.46 3425.35 1498.95C3427.62 1501.78 3429.97 1503.36 3432.39 1503.68C3453.74 1483.2 3467.17 1463.6 3472.68 1444.89C3478.19 1426.19 3476.09 1401.64 3466.39 1371.25L3446.08 1307.61C3441.77 1294.09 3435.32 1273.67 3426.73 1246.34C3418.15 1219.01 3411.74 1198.71 3407.5 1185.44C3403.12 1186.29 3398.44 1186.82 3393.46 1187.05C3388.47 1187.27 3384.19 1187.34 3380.61 1187.25C3377.19 1187.25 3372.48 1186.84 3366.48 1186.02C3360.52 1185.33 3356.47 1184.84 3354.33 1184.57C3352.31 1184.26 3347.84 1183.5 3340.89 1182.3C3333.99 1181.22 3330.08 1180.55 3329.18 1180.3C3327.39 1181.96 3326.41 1184.67 3326.24 1188.41C3343.56 1192.59 3356.47 1195.98 3364.96 1198.6C3373.45 1201.22 3381.91 1204.81 3390.33 1209.37C3398.92 1214.01 3404.1 1219.12 3405.88 1224.7Z" fill="#FE0000"/>
<path d="M3507.32 1642.46L3507.35 1642.85C3508.49 1650.86 3509.56 1661.22 3510.54 1673.94C3512.07 1693.68 3507.13 1709.21 3495.73 1720.54C3484.34 1732 3468.91 1738.48 3449.44 1739.99C3429.7 1741.51 3412.2 1738.03 3396.91 1729.55C3381.77 1721.19 3373.41 1706.88 3371.85 1686.63C3370.92 1674.69 3371.5 1662.76 3373.59 1650.84C3419.28 1647.31 3463.86 1644.51 3507.32 1642.46ZM3448.82 1732C3465.57 1730.71 3479.26 1724.55 3489.9 1713.55C3500.55 1702.67 3504.59 1689.03 3502.02 1672.65C3451.96 1675.47 3411.87 1678.05 3381.75 1680.38C3381.17 1683.04 3380.83 1687.05 3380.72 1692.41C3383.58 1707.47 3391.59 1718.14 3404.74 1724.44C3417.9 1730.74 3432.59 1733.26 3448.82 1732ZM3258.29 1624.11C3248.66 1624.59 3241.27 1610.01 3236.1 1580.37C3233.95 1579.5 3230.89 1579.73 3226.95 1581.08C3229.44 1603.09 3231.58 1625.71 3233.37 1648.95C3235.51 1676.6 3237.18 1703.18 3238.37 1728.69C3240.52 1729.57 3243.57 1729.33 3247.52 1727.98C3246.78 1684.68 3251.34 1662.52 3261.18 1661.49C3297.56 1657.37 3330.1 1654.21 3358.79 1651.99C3356.94 1666.89 3356.49 1680.57 3357.46 1693.03C3319.51 1717.38 3281.69 1748.52 3244.01 1786.43C3244.52 1793.05 3245.19 1802.6 3246.03 1815.07C3246.87 1827.68 3247.61 1838.98 3248.26 1848.99C3248.91 1859.12 3249.46 1868.74 3249.9 1877.85C3252.32 1878.71 3255.37 1878.47 3259.05 1877.14C3258.97 1855.73 3262.77 1837.35 3270.46 1822C3278.29 1806.77 3293.47 1788.48 3315.98 1767.15C3331.7 1752.62 3348.43 1739.31 3366.17 1727.23C3374.02 1745.95 3385.77 1760.25 3401.42 1770.15C3417.08 1780.04 3434.18 1784.26 3452.75 1782.83C3476.12 1781.02 3494.42 1772.03 3507.67 1755.86C3521.04 1739.67 3526.7 1718.27 3524.64 1691.66C3516.82 1603.98 3513.41 1559.84 3514.4 1559.24C3511.23 1558.71 3508.18 1558.94 3505.25 1559.95C3504.7 1590.03 3499.64 1605.57 3490.05 1606.57C3459.64 1610.23 3423.41 1613.69 3381.35 1616.94C3340.19 1620.12 3299.18 1622.51 3258.29 1624.11ZM3258.06 1616.09C3290.64 1615.14 3331.53 1612.76 3380.73 1608.96C3422.53 1605.72 3458.64 1602.28 3489.04 1598.62C3493.83 1597.99 3496.54 1583.22 3497.17 1554.31C3505.57 1551.44 3513.97 1551.05 3522.36 1553.14C3522.68 1567.48 3523.49 1583.03 3524.79 1599.77C3526.08 1616.52 3527.7 1635.72 3529.63 1657.38C3531.57 1679.04 3532.93 1694.94 3533.71 1705.06C3536.14 1736.48 3530.07 1761.76 3515.48 1780.91C3501.03 1800.05 3480.89 1810.62 3455.05 1812.62C3436.75 1814.04 3419.46 1810.08 3403.2 1800.76C3386.94 1791.44 3374.16 1778.2 3364.87 1761.02C3351.14 1770.96 3337.13 1782.36 3322.85 1795.22C3305.61 1810.4 3292.11 1825.03 3282.36 1839.1C3272.62 1853.31 3267.6 1868.58 3267.3 1884.93C3259.15 1887.65 3250.75 1888.04 3242.12 1886.09C3241.2 1867.49 3239.08 1833.31 3235.75 1783.55C3275.51 1743.77 3313.29 1712.18 3349.09 1688.78L3348.64 1682.94C3324.5 1684.81 3296.25 1687.64 3263.89 1691.45C3263.11 1691.51 3262.36 1691.9 3261.63 1692.61C3260.9 1693.32 3259.86 1695.94 3258.52 1700.49C3257.17 1705.03 3256.19 1711.83 3255.59 1720.89C3255.12 1730.07 3254.8 1735.19 3254.62 1736.25C3247.52 1739.02 3239.51 1739.24 3230.58 1736.93C3227.91 1688.95 3226.18 1659.83 3225.39 1649.57C3224.85 1642.56 3222.44 1618.13 3218.16 1576.28C3226.86 1572.34 3235.24 1571.69 3243.28 1574.33C3248.31 1602.28 3253.24 1616.2 3258.06 1616.09Z" fill="#FE0000"/>
<path d="M3209.55 2208.89C3211.07 2201.75 3212.69 2194.82 3214.4 2188.1C3216.23 2181.54 3218.22 2175.59 3220.37 2170.26C3222.53 2164.93 3224.94 2160.5 3227.6 2156.96C3230.38 2153.58 3233.46 2151.56 3236.86 2150.91L3517.19 2085.65C3517.41 2083.44 3516.84 2081.18 3515.49 2078.86C3499.69 2075.45 3487.66 2068.55 3479.4 2058.16L3467.32 2060.8L3275.41 1947.2C3263.36 1940.03 3257.81 1922.94 3258.76 1895.94C3257.08 1894.88 3255.53 1894.25 3254.12 1894.02C3252.57 1893.78 3250.97 1893.92 3249.3 1894.45C3247.51 1909.2 3246.05 1921.03 3244.91 1929.94C3243.75 1938.99 3242.91 1945.18 3242.38 1948.53C3241.92 1951.48 3240.74 1958.15 3238.84 1968.53C3236.93 1979.04 3234.3 1993.26 3230.95 2011.18C3232.37 2012.2 3233.86 2012.83 3235.4 2013.07C3236.81 2013.29 3238.48 2013.16 3240.41 2012.67C3243.11 2002.16 3245.57 1993.64 3247.78 1987.14C3250.12 1980.65 3252.29 1975.65 3254.29 1972.15C3256.29 1968.64 3258.23 1966.37 3260.1 1965.35C3262.11 1964.35 3264.2 1964.02 3266.39 1964.36C3267.8 1964.58 3269.18 1965.06 3270.51 1965.8L3336.7 2005.07C3334.71 2019.39 3333.09 2030.93 3331.85 2039.7C3330.58 2048.6 3329.68 2054.72 3329.16 2058.06C3328.01 2065.39 3326.92 2071.88 3325.9 2077.52C3324.99 2083.31 3324.15 2088.25 3323.37 2092.34L3247.97 2109.16C3245.94 2109.5 3244.41 2109.59 3243.38 2109.42C3239.91 2108.88 3237.1 2106.59 3234.97 2102.56C3232.81 2098.67 3231.63 2094.06 3231.41 2088.76L3231.79 2067.46C3230.11 2066.41 3228.56 2065.77 3227.15 2065.55C3225.6 2065.31 3224 2065.45 3222.34 2065.98C3221 2076.97 3219.58 2088.09 3218.08 2099.32C3216.56 2110.68 3214.87 2122.27 3213.01 2134.11C3211.15 2145.94 3209.14 2157.88 3206.98 2169.93C3204.8 2182.11 3202.51 2194.6 3200.1 2207.4C3201.76 2208.59 3203.23 2209.28 3204.52 2209.48C3205.29 2209.6 3206.08 2209.6 3206.89 2209.46C3207.7 2209.33 3208.59 2209.14 3209.55 2208.89ZM3344.21 2060.43C3347.14 2041.78 3349.81 2026.45 3352.23 2014.44L3441.01 2065.96L3440.89 2066.73L3340.16 2088.66C3341 2081.67 3342.35 2072.26 3344.21 2060.43ZM3420.69 2063.16L3357.97 2027C3354.75 2042.44 3351.93 2059.53 3349.51 2078.26L3420.69 2063.16ZM3215.75 2216C3207.53 2218 3199.38 2216.58 3191.31 2211.76L3215.36 2058.75C3224.73 2057.06 3232.89 2058.35 3239.87 2062.61C3238.44 2076.75 3238.29 2086.87 3239.44 2092.99C3240.72 2099.12 3243.88 2101.66 3248.92 2100.61L3316.76 2085.37C3321.4 2061.72 3325.15 2036.21 3328 2008.85L3268.05 1973.91C3265.98 1972.8 3263.9 1973.06 3261.8 1974.71C3259.8 1976.51 3257.93 1979.57 3256.2 1983.91C3254.46 1988.25 3252.79 1993.4 3251.2 1999.34C3249.61 2005.29 3248.08 2012.03 3246.63 2019.58C3238.41 2021.58 3230.26 2020.17 3222.19 2015.34C3230.37 1973.39 3237.05 1930.88 3242.24 1887.81C3251.41 1885.69 3259.6 1886.84 3266.81 1891.27C3265.73 1918.26 3269.16 1934.15 3277.1 1938.96L3469.01 2052.57C3470.12 2052.22 3472.6 2051.55 3476.44 2050.57C3480.4 2049.75 3482.97 2049.29 3484.17 2049.22C3492.76 2060.85 3505.01 2068.44 3520.92 2072C3524.67 2084.19 3525.73 2098 3524.1 2113.43L3238.5 2179.44C3232.07 2180.93 3227.41 2184.15 3224.53 2189.1C3221.77 2194.07 3218.84 2203.04 3215.75 2216Z" fill="#FE0000"/>
<path d="M3321.77 2630.96C3325.78 2618.53 3328.24 2608.34 3329.13 2600.4C3330.09 2592.62 3328.33 2586.47 3323.86 2581.95L3118.02 2380.56L3125.71 2361.97L3414.28 2356.2C3425.99 2355.83 3437.75 2344.42 3449.57 2321.97C3458.36 2323.21 3466.02 2326.66 3472.56 2332.33C3447.83 2387.34 3427.61 2435.55 3411.89 2476.96C3404.03 2476.52 3396.39 2473.36 3388.97 2467.47C3394.18 2451.46 3396.89 2441.16 3397.09 2436.59C3397.29 2432.03 3394.81 2429.66 3389.66 2429.51L3220.21 2431.92L3340.39 2548.63C3342.02 2550.14 3343.93 2550.3 3346.12 2549.09C3348.38 2548.05 3350.84 2545.69 3353.49 2542C3356.1 2538.42 3358.55 2534.72 3360.84 2530.87C3363.14 2527.03 3365.74 2522.26 3368.66 2516.57C3377.4 2517.93 3385.06 2521.38 3391.65 2526.92C3373.78 2566.03 3358.35 2603.68 3345.35 2639.87C3336.77 2639.14 3328.91 2636.17 3321.77 2630.96ZM3331.27 2627.92C3334.36 2630.32 3337.19 2631.49 3339.75 2631.43C3345.55 2615.36 3351.86 2599.09 3358.68 2582.61C3365.2 2566.85 3372.95 2549.13 3381.93 2529.45C3380.16 2527.59 3377.34 2526.42 3373.45 2525.94C3370.73 2531.16 3368.38 2535.47 3366.41 2538.88C3364.38 2542.41 3361.61 2546.55 3358.1 2551.3C3354.59 2556.05 3351.02 2558.87 3347.41 2559.77C3343.75 2560.79 3340.41 2559.83 3337.4 2556.9L3180.42 2404.47L3398.95 2401.43C3408.58 2401.33 3413.3 2404.9 3413.12 2412.15C3413.01 2419.58 3408.39 2436.69 3399.28 2463.5C3402.37 2465.9 3405.2 2467.07 3407.76 2467.01C3420.76 2430.81 3439.05 2386.59 3462.63 2334.35C3460.91 2332.37 3458.08 2331.2 3454.15 2330.84C3442.62 2352.57 3429.38 2363.64 3414.4 2364.07L3131.1 2369.9L3127.59 2378.39L3329.41 2576.21C3334.87 2582.41 3337.44 2589.67 3337.1 2597.99C3336.83 2606.47 3334.89 2616.45 3331.27 2627.92Z" fill="#FE0000"/>
<path d="M3195.46 2844.08L3252.97 2764.42C3262.5 2751.23 3276.29 2733.01 3294.36 2709.76L3286.92 2704.38C3267.07 2726.99 3253.16 2735.58 3245.2 2730.15C3219.62 2713.29 3189.74 2692.52 3155.53 2667.82C3122.07 2643.66 3089.22 2618.98 3056.98 2593.78C3049.32 2587.93 3053.1 2572.02 3068.31 2546.06C3064.92 2542.97 3062.44 2541.18 3060.86 2540.69C3046.79 2561.52 3012.92 2609.1 2959.26 2683.42C2940.51 2709.39 2930.84 2732.12 2930.26 2751.61C2929.68 2771.11 2936.4 2793.94 2950.41 2820.13C2952.71 2820.5 2955.42 2819.65 2958.53 2817.56C2936.72 2772.58 2944.45 2724.28 2981.73 2672.66L3023 2615.49C3069.89 2647.75 3104 2671.57 3125.33 2686.97L3088.37 2738.82C3085.1 2743.36 3081.31 2747.05 3077.01 2749.89C3072.64 2752.83 3068.82 2754.89 3065.56 2756.07C3062.33 2757.43 3057.41 2758.13 3050.79 2758.18C3044.18 2758.22 3039.41 2758.15 3036.49 2757.97C3033.67 2757.86 3028.06 2757.18 3019.65 2755.93C3011.24 2754.67 3005.76 2753.93 3003.2 2753.69C3002.21 2757.95 3002.15 2761.04 3003.02 2762.95C3028.59 2765.35 3048.92 2772 3064.02 2782.9C3070.56 2787.63 3077.46 2794.86 3084.73 2804.6C3091.91 2814.44 3097.77 2824.46 3102.31 2834.63C3104.39 2834.86 3107.25 2833.79 3110.88 2831.43C3110.01 2829.52 3108.07 2825.54 3105.04 2819.5C3101.94 2813.57 3099.95 2809.65 3099.08 2807.74C3098.24 2806.01 3096.76 2802.61 3094.64 2797.54C3092.44 2792.58 3091.16 2789.01 3090.81 2786.83C3090.46 2784.65 3089.93 2781.37 3089.22 2777.01C3088.55 2772.83 3088.58 2769.24 3089.3 2766.23C3090.06 2763.4 3091.17 2760.19 3092.64 2756.59C3094.11 2753 3096.07 2749.51 3098.51 2746.13C3114.9 2723.44 3127.53 2706.38 3136.41 2694.97C3161.96 2713.41 3194.81 2738.09 3234.96 2769.01L3198.61 2819.37C3161.33 2870.99 3117.92 2893.53 3068.37 2886.98C3067.37 2890.59 3067.46 2893.47 3068.64 2895.61C3097.8 2900.6 3121.54 2899.75 3139.86 2893.06C3158.18 2886.38 3176.71 2870.05 3195.46 2844.08ZM3112.86 2817.68L3121.24 2834.1C3111.67 2840.68 3103.57 2843.34 3096.93 2842.08C3092.13 2831.38 3086.1 2820.93 3078.86 2810.72C3071.64 2800.69 3065.13 2793.58 3059.33 2789.39C3045.29 2779.26 3024.73 2772.92 2997.64 2770.39C2994.09 2763.97 2993.86 2755.62 2996.95 2745.32C3006.21 2746.07 3013.23 2746.8 3018.01 2747.52C3028.32 2748.37 3036.13 2748.79 3041.44 2748.77C3046.78 2748.94 3053.04 2747.83 3060.21 2745.46C3067.38 2743.09 3073.24 2738.98 3077.8 2733.11L3098.38 2704.61C3075.05 2687.76 3046.29 2667.64 3012.11 2644.25L2988.45 2677.03C2969.09 2703.84 2958.57 2729.42 2956.91 2753.75C2955.27 2778.26 2959.24 2800.56 2968.83 2820.65C2959.15 2827.16 2950.99 2829.78 2944.36 2828.52C2931.43 2798.15 2915.49 2774.19 2896.52 2756.64L2991.41 2625.21C3021.52 2583.51 3043.57 2552.3 3057.57 2531.57C3066.04 2534.31 3072.81 2539.04 3077.91 2545.77C3063.54 2570.57 3058.23 2584.48 3061.99 2587.51C3094.22 2612.71 3126.97 2637.32 3160.22 2661.33C3194.21 2685.87 3224 2706.57 3249.57 2723.43C3253.63 2726.03 3265.24 2716.51 3284.4 2694.86C3293.24 2698.19 3299.9 2703.31 3304.38 2710.24C3279.92 2741.89 3263.88 2762.99 3256.26 2773.55L3145.7 2926.67C3123.18 2914.27 3095.44 2906.76 3062.47 2904.16C3059.15 2898.07 3059.11 2889.45 3062.35 2878.3C3084.33 2881 3106.64 2877.68 3129.29 2868.33C3151.96 2859.17 3172.98 2841.18 3192.34 2814.36L3211.09 2788.39C3173.96 2759.97 3145.25 2738.45 3124.98 2723.81C3119.97 2730.31 3112.93 2739.84 3103.86 2752.41C3097.46 2761.27 3095.31 2770.48 3097.41 2780.03C3099.61 2789.65 3104.76 2802.2 3112.86 2817.68Z" fill="#FE0000"/>
<path d="M2900.68 2974.5C2921.63 2998.74 2944.93 3026.7 2970.59 3058.39C2976.87 3066.04 2964.5 3084.99 2933.5 3115.23C2934.52 3117.61 2936.52 3119.92 2939.5 3122.17C2964.63 3099.08 2984.43 3081.27 2998.92 3068.76C3011.03 3058.29 3028.57 3043.82 3051.51 3025.37C3050.77 3022.92 3048.77 3020.6 3045.51 3018.43C3020.98 3035.84 3005.46 3040.99 2998.97 3033.87C2977.97 3011.57 2953.69 2984.46 2926.1 2952.54C2899.11 2921.31 2872.84 2889.71 2847.29 2857.76C2841.19 2850.3 2848.53 2835.69 2869.32 2813.94C2867.78 2810.97 2865.78 2808.65 2863.31 2807C2844.81 2824.02 2800.88 2862.5 2731.52 2922.44C2707.88 2942.87 2693.98 2962.63 2689.82 2981.71C2685.66 3000.79 2687.52 3025.25 2695.41 3055.09C2697.65 3056.09 2700.52 3055.93 2704.03 3054.61C2701.74 3044.2 2700.53 3034.23 2700.39 3024.71C2700.26 3015.2 2701.55 3004.35 2704.29 2992.18C2707.11 2980.11 2712.86 2967.65 2721.55 2954.8C2730.14 2942.04 2741.58 2929.49 2755.87 2917.15L2809.21 2871.05C2839.88 2904.94 2870.37 2939.43 2900.68 2974.5ZM2868.77 2982.98C2845.44 2955.98 2819.85 2927.16 2791.99 2896.52L2761.4 2922.95C2717.66 2960.75 2701.59 3006.38 2713.2 3059.85C2702.29 3063.95 2693.75 3064.62 2687.58 3061.86C2681.49 3026.34 2671.29 2997.81 2656.98 2976.27L2776.24 2873.21C2815.15 2839.58 2843.81 2814.3 2862.22 2797.36C2869.82 2801.98 2875.32 2808.15 2878.73 2815.87C2859.03 2836.69 2850.65 2849 2853.61 2852.82C2879.16 2884.77 2905.34 2916.27 2932.16 2947.3C2959.57 2979.02 2983.78 3006.04 3004.77 3028.34C3008.12 3031.81 3021.61 3025.22 3045.26 3008.58C3052.55 3013.63 3057.85 3020.16 3061.14 3028.15C3043.15 3041.98 3020.65 3060.56 2993.66 3083.88C2989.62 3087.38 2981.63 3094.46 2969.68 3105.12C2957.73 3115.79 2947.23 3125.04 2938.16 3132.88C2931.44 3128.88 2926.1 3122.9 2922.16 3114.96C2942.06 3093.97 2950.53 3081.57 2947.58 3077.76C2927.48 3052.11 2901.21 3020.51 2868.77 2982.98Z" fill="#FE0000"/>
</svg>
