<svg width="3660" height="3322" viewBox="0 0 3660 3322" fill="none" xmlns="http://www.w3.org/2000/svg">
<g style="mix-blend-mode:darken" filter="url(#filter0_d_136_27)">
<path d="M694.311 3113.55C703.69 3121.82 714.119 3129.18 725.599 3135.65C736.894 3142.14 750.185 3147.34 765.47 3151.26C780.658 3155.1 795.873 3156.44 811.115 3155.3C826.357 3154.15 842.592 3149.02 859.821 3139.9C876.964 3130.88 893.111 3117.78 908.261 3100.58C923.411 3083.39 934.423 3065.67 941.296 3047.43C948.084 3029.29 951.044 3012.64 950.178 2997.47C949.226 2982.4 945.89 2967.57 940.171 2952.99C934.268 2938.42 927.391 2925.94 919.538 2915.55C911.674 2904.97 903.053 2895.55 893.674 2887.29C878.922 2874.29 864.436 2864.05 850.216 2856.55C836.083 2848.95 819.008 2841.55 798.994 2834.32C792.802 2850.21 781.615 2867.34 765.432 2885.71L746.322 2907.4C740.038 2914.53 719.64 2904.89 685.128 2878.47C681.987 2879.87 679.964 2882.16 679.059 2885.36C705.344 2907.13 725.667 2924.34 740.028 2936.99C752.044 2947.58 768.699 2962.95 789.992 2983.1C792.655 2981.46 794.678 2979.16 796.06 2976.21C775.473 2954.08 768.321 2939.45 774.605 2932.32L827.028 2872.82C843.865 2870.65 862.982 2878.99 884.377 2897.84C895.807 2907.91 904.361 2919.18 910.039 2931.65C915.716 2944.11 918.619 2956.47 918.748 2968.74C918.694 2981.01 916.715 2993.5 912.813 3006.2C908.911 3018.9 903.842 3030.66 897.606 3041.48C891.187 3052.31 883.846 3062.41 875.582 3071.79C864.994 3083.81 853.199 3094.24 840.197 3103.09C827.011 3111.95 812.827 3118.89 797.645 3123.9C782.28 3128.93 766.334 3129.9 749.809 3126.79C733.186 3123.6 717.742 3115.72 703.479 3103.15C693.905 3094.71 686.349 3085.36 680.811 3075.11C675.273 3064.85 671.674 3055.34 670.014 3046.59C668.256 3037.75 667.942 3027.67 669.071 3016.34C670.114 3005.11 671.604 2995.84 673.54 2988.52C675.292 2981.22 677.761 2972.11 680.947 2961.21C677.574 2958.93 674.82 2958.41 672.684 2959.65C654.348 2995.04 647.772 3024.56 652.957 3048.22C657.959 3071.89 671.744 3093.67 694.311 3113.55ZM690.274 2957.71C686.211 2970.79 683.27 2981.91 681.45 2991.07C679.544 3000.32 678.257 3011.33 677.588 3024.11C676.735 3036.89 678.512 3048.96 682.92 3060.3C687.327 3071.65 694.126 3082.15 703.316 3091.81C715.349 3101.2 728.467 3106.6 742.671 3108.01C756.789 3109.51 770.503 3107.54 783.812 3102.08C797.121 3096.63 809.596 3089.66 821.237 3081.18C832.793 3072.79 843.434 3063.07 853.161 3052.04C866.59 3036.79 877.364 3020.43 885.484 3002.94C893.604 2985.45 897.227 2966.87 896.352 2947.18C895.293 2927.5 887.241 2911.04 872.196 2897.78C858.225 2885.47 844.483 2879.7 830.97 2880.46L780.613 2937.61C777.686 2940.93 786.126 2953.32 805.932 2974.76C802.544 2983.92 796.797 2990.05 788.689 2993.15C760.684 2966.04 720.545 2930.15 668.273 2885.48C671.191 2877.64 676.387 2871.55 683.862 2867.2C707.628 2884.15 720.974 2890.96 723.901 2887.64L743.011 2865.95C758.677 2848.17 770.355 2829.31 778.042 2809.35C796.38 2816.31 809.78 2821.79 818.242 2825.77C826.693 2829.57 838.087 2836.14 852.423 2845.48C866.844 2854.71 882.36 2866.65 898.968 2881.28C909.03 2890.15 918.146 2900.09 926.315 2911.11C934.57 2922.02 941.764 2935.13 947.897 2950.43C953.944 2965.82 957.423 2981.47 958.336 2997.37C959.249 3013.27 956.157 3030.76 949.06 3049.85C941.877 3069.03 930.28 3087.71 914.269 3105.88C898.258 3124.05 881.282 3137.9 863.341 3147.43C845.314 3157.06 828.361 3162.51 812.482 3163.79C796.603 3165.07 780.745 3163.77 764.908 3159.88C748.887 3156 734.991 3150.7 723.218 3143.97C711.262 3137.25 700.252 3129.46 690.19 3120.59C673.972 3106.3 657.804 3088.41 641.685 3066.92C625.468 3045.35 614.931 3031.9 610.075 3026.58C624.305 3016.73 635.297 3006.71 643.049 2996.54C650.715 2986.46 658.223 2972.42 665.573 2954.43C673.485 2951.16 681.719 2952.26 690.274 2957.71Z" fill="#F0F0F0"/>
<path d="M677.175 2705.22C634.712 2739.28 602.499 2764.78 580.537 2781.72C555.172 2801.28 525.955 2822.99 492.887 2846.84C484.892 2852.68 466.664 2839.28 438.202 2806.64C435.766 2807.53 433.343 2809.4 430.933 2812.24C452.591 2838.62 469.264 2859.39 480.953 2874.55C490.734 2887.23 504.197 2905.54 521.342 2929.48C523.834 2928.87 526.257 2927 528.611 2923.87C512.591 2898.41 508.317 2882.63 515.788 2876.54C539.223 2856.82 567.645 2834.08 601.052 2808.32C633.737 2783.11 666.745 2758.64 700.076 2734.91C707.865 2729.24 722.038 2737.38 742.595 2759.35C744.881 2758.9 747.304 2757.03 749.864 2753.74C735.728 2736.69 721.543 2718.93 707.31 2700.48C690.373 2678.52 674.421 2657.19 659.455 2636.5C657.169 2636.95 654.746 2638.82 652.186 2642.11C676.523 2677.93 684.853 2698.97 677.175 2705.22ZM538.46 2924.17C533.007 2931.17 526.197 2936.09 518.031 2938.94C511.034 2929.86 501.829 2917.4 490.418 2901.53C478.926 2885.56 470.835 2874.54 466.144 2868.46C462.724 2864.02 456.021 2855.54 446.035 2843.02C436.048 2830.5 427.477 2819.59 420.32 2810.32C424.687 2803.82 430.948 2798.83 439.105 2795.34C458.947 2816.37 470.854 2825.52 474.828 2822.79C501.56 2804.15 534.568 2779.68 573.852 2749.38C611.796 2720.12 640.012 2697.54 658.498 2681.64C659.116 2681.16 659.536 2680.43 659.757 2679.43C659.979 2678.44 659.937 2677.32 659.634 2676.08C659.252 2674.73 658.92 2673.34 658.641 2671.91C658.258 2670.56 657.597 2668.85 656.658 2666.78C655.639 2664.61 654.807 2662.78 654.162 2661.3C653.517 2659.83 652.554 2657.94 651.273 2655.64C649.913 2653.24 648.859 2651.34 648.111 2649.94C647.283 2648.44 646.138 2646.53 644.674 2644.2C643.131 2641.78 642.144 2640.07 641.714 2639.09C646.137 2632.88 652.717 2628.3 661.454 2625.34C689.97 2664.03 707.369 2687.44 713.651 2695.59C717.945 2701.16 733.346 2720.27 759.854 2752.94C754.728 2761.01 748.077 2766.13 739.903 2768.33C720.379 2747.7 708.631 2738.76 704.657 2741.49C677.925 2760.14 645.02 2784.52 605.942 2814.66C572.741 2840.26 544.423 2862.93 520.987 2882.64C517.331 2885.79 523.156 2899.63 538.46 2924.17Z" fill="#F0F0F0"/>
<path d="M416 2458.74L393.162 2470.27C366.314 2483.83 335.053 2500.35 299.379 2519.83C293.336 2523.17 295.639 2537.98 306.286 2564.26C303.04 2567.94 299.732 2570.64 296.361 2572.34C294.269 2573.39 290.313 2574.37 284.494 2575.27C276.268 2557.25 267.664 2539.35 258.682 2521.57C249.641 2503.67 240.017 2485.48 229.809 2467.01C233.985 2462.86 237.119 2460.25 239.211 2459.19C242.582 2457.49 246.712 2456.43 251.601 2456C266.078 2478.88 276.339 2488.95 282.383 2486.18C307.67 2475.31 343.906 2457.95 391.093 2434.12C444.323 2407.23 487.002 2384.72 519.13 2366.6L526.7 2380.72L407.864 2648.4C409.956 2647.34 413.821 2645.46 419.459 2642.76C424.98 2640.12 429.251 2638.03 432.273 2636.51C488.409 2608.15 535.853 2583.24 574.606 2561.77C580.765 2558.37 578.52 2543.53 567.873 2517.25C571.119 2513.57 574.427 2510.88 577.798 2509.17C580.355 2507.88 584.543 2506.79 590.362 2505.89C598.706 2524.14 607.31 2542.04 616.174 2559.59C625.215 2577.49 634.839 2595.68 645.047 2614.15C640.871 2618.3 637.505 2621.02 634.948 2622.32C631.577 2624.02 627.447 2625.08 622.558 2625.51C608.081 2602.63 597.762 2592.6 591.601 2595.42C566.49 2606.35 530.341 2623.73 483.154 2647.57C447.009 2665.83 414.992 2682.58 387.103 2697.84C384.991 2708.38 387.258 2721.68 393.904 2737.72C391.647 2741.05 388.484 2743.74 384.416 2745.8C380.116 2747.97 375.665 2748.83 371.063 2748.39C359.955 2723.51 345.038 2692.53 326.311 2655.46L416 2458.74ZM394.703 2441.27C359.487 2459.05 323.251 2476.41 285.994 2493.33C275.299 2498.15 262.42 2488.54 247.356 2464.49C244.91 2464.56 242.179 2465.94 239.162 2468.63C250.955 2490.24 259.17 2505.64 263.808 2514.82C271.146 2529.35 279.163 2546.09 287.859 2565.04C291.815 2564.2 294.546 2562.82 296.052 2560.9C285.52 2534.27 285.426 2518.2 295.768 2512.68C331.443 2493.2 362.704 2476.68 389.551 2463.12C405.242 2455.2 426.512 2444.75 453.362 2431.77L345.17 2675.03C358.379 2701.18 368.863 2723.09 376.622 2740.77C379.881 2740.29 382.612 2738.91 384.815 2736.63C378.172 2721.16 376.685 2706.38 380.354 2692.27C408.127 2677.08 441.19 2659.79 479.544 2640.42C514.759 2622.63 550.908 2605.25 587.991 2588.27C598.802 2583.39 611.739 2592.98 626.803 2617.02C629.132 2617.01 631.863 2615.63 634.997 2612.88C623.263 2591.39 615.047 2575.99 610.351 2566.69C603.013 2552.16 594.996 2535.42 586.3 2516.48C582.228 2517.37 579.496 2518.75 578.107 2520.61C588.639 2547.24 588.675 2563.34 578.216 2568.92C542.658 2588.34 511.455 2604.83 484.607 2618.39C453.924 2633.89 423.356 2648.89 392.902 2663.4L392.021 2661.65L517.791 2380.84L515.769 2377.71C489.102 2392.78 448.747 2413.97 394.703 2441.27Z" fill="#F0F0F0"/>
<path d="M163.437 2196.88L185.616 2292.59C189.29 2308.44 193.942 2330.82 199.571 2359.73L208.513 2357.65C204.543 2327.83 207.222 2311.71 216.55 2309.28C246.065 2301.1 281.371 2292.25 322.47 2282.73C362.68 2273.41 402.877 2264.89 443.059 2257.19C452.505 2255.27 462.003 2268.57 471.555 2297.1C476.112 2296.57 479.093 2295.88 480.498 2295.02C474.063 2270.72 460.499 2213.92 439.804 2124.62C432.573 2093.41 421.807 2071.18 407.507 2057.92C393.207 2044.66 371.585 2034.7 342.642 2028.04C340.848 2029.53 339.713 2032.13 339.238 2035.85C387.463 2049 418.762 2086.59 433.136 2148.62L449.054 2217.3C393.916 2231.42 353.535 2241.44 327.912 2247.38L313.157 2185.44C311.893 2179.99 311.605 2174.71 312.294 2169.6C312.952 2164.37 313.91 2160.14 315.166 2156.91C316.266 2153.58 318.975 2149.41 323.294 2144.4C327.613 2139.39 330.801 2135.84 332.858 2133.76C334.789 2131.71 338.991 2127.93 345.467 2122.42C351.942 2116.91 356.111 2113.27 357.973 2111.5C355.413 2107.95 353.127 2105.87 351.116 2105.27C332.492 2122.95 314.11 2133.9 295.971 2138.1C288.107 2139.92 278.118 2140.37 266.006 2139.43C253.864 2138.37 242.468 2136.2 231.817 2132.92C230.276 2134.34 229.2 2137.2 228.589 2141.49C230.6 2142.09 234.876 2143.24 241.417 2144.93C247.928 2146.49 252.189 2147.58 254.2 2148.18C256.055 2148.69 259.589 2149.81 264.802 2151.54C269.986 2153.14 273.515 2154.53 275.39 2155.7C277.265 2156.87 280.077 2158.62 283.827 2160.96C287.42 2163.2 290.111 2165.59 291.9 2168.11C293.532 2170.54 295.218 2173.49 296.958 2176.97C298.699 2180.44 300.039 2184.2 300.98 2188.26C307.3 2215.54 311.838 2236.27 314.593 2250.47C283.896 2257.58 243.7 2266.1 194.004 2276.01L179.982 2215.5C165.608 2153.47 177.183 2105.95 214.707 2072.93C212.645 2069.8 210.418 2067.97 208.026 2067.46C185.089 2086.14 170.115 2104.58 163.105 2122.78C156.095 2140.98 156.206 2165.68 163.437 2196.88ZM237.646 2152.02L219.768 2147.54C221.104 2136 224.429 2128.15 229.744 2123.98C240.961 2127.39 252.797 2129.73 265.251 2130.98C277.549 2132.14 287.187 2131.92 294.163 2130.3C311.034 2126.39 329.327 2115.07 349.044 2096.33C356.219 2097.87 362.665 2103.2 368.383 2112.3C361.732 2118.78 356.564 2123.59 352.878 2126.72C345.458 2133.92 340.007 2139.52 336.527 2143.54C332.89 2147.45 329.606 2152.89 326.675 2159.85C323.744 2166.82 322.989 2173.94 324.411 2181.23L332.348 2215.48C360.381 2208.98 394.449 2200.55 434.551 2190.19L425.423 2150.8C417.957 2118.59 405.608 2093.85 388.376 2076.59C370.988 2059.23 351.575 2047.56 330.138 2041.57C331.601 2030 334.99 2022.13 340.305 2017.96C371.682 2028.2 400.217 2031.94 425.912 2029.2L462.509 2187.12C474.12 2237.22 483.128 2274.37 489.533 2298.54C481.906 2303.12 473.88 2305.11 465.457 2304.52C456.229 2277.39 449.239 2264.24 444.487 2265.08C404.304 2272.78 364.234 2281.27 324.278 2290.53C283.433 2299.99 248.253 2308.81 218.738 2316.99C214.103 2318.33 213.639 2333.34 217.345 2362.02C209.024 2366.49 200.784 2368.13 192.624 2366.95C184.868 2327.71 179.52 2301.75 176.58 2289.07L133.942 2105.08C158.099 2096.27 182 2080.31 205.645 2057.18C212.41 2058.69 218.93 2064.33 225.204 2074.1C208.715 2088.88 196.542 2107.88 188.688 2131.08C180.677 2154.19 180.405 2181.86 187.871 2214.07L195.103 2245.28C240.935 2235.99 276.028 2228.53 300.382 2222.89C298.784 2214.84 296.236 2203.26 292.738 2188.17C290.269 2177.51 284.748 2169.84 276.174 2165.14C267.474 2160.48 254.632 2156.1 237.646 2152.02Z" fill="#F0F0F0"/>
<path d="M135.607 1886.72L135.608 1886.33C135.106 1878.26 134.87 1867.84 134.9 1855.08C134.946 1835.29 141.101 1820.2 153.365 1809.81C165.629 1799.29 181.526 1794.06 201.058 1794.1C220.849 1794.15 238.025 1799 252.586 1808.67C267.017 1818.21 274.209 1833.14 274.162 1853.45C274.134 1865.43 272.609 1877.28 269.587 1888.99C223.753 1888.88 179.094 1888.13 135.607 1886.72ZM201.039 1802.11C184.242 1802.07 170.103 1807.11 158.621 1817.24C147.139 1827.24 142.03 1840.51 143.294 1857.05C193.421 1858.21 233.589 1858.83 263.797 1858.9C264.585 1856.29 265.245 1852.32 265.778 1846.99C264.121 1831.75 256.986 1820.47 244.373 1813.15C231.759 1805.83 217.315 1802.15 201.039 1802.11ZM382.394 1924.8C392.029 1925.08 398.244 1940.2 401.038 1970.15C403.119 1971.2 406.179 1971.21 410.218 1970.17C409.488 1948.04 409.151 1925.32 409.205 1902.01C409.27 1874.27 409.722 1847.65 410.563 1822.13C408.482 1821.08 405.422 1821.07 401.383 1822.11C398.679 1865.33 392.378 1887.06 382.481 1887.3C345.89 1888.51 313.206 1889.09 284.43 1889.02C287.459 1874.32 288.989 1860.71 289.018 1848.21C328.781 1826.95 368.95 1798.92 409.526 1764.12C409.542 1757.48 409.629 1747.91 409.789 1735.41C409.948 1722.78 410.105 1711.45 410.258 1701.42C410.412 1691.27 410.63 1681.63 410.912 1672.52C408.57 1671.47 405.511 1671.46 401.732 1672.5C400.12 1693.85 394.87 1711.87 385.981 1726.56C376.963 1741.13 360.387 1758.14 336.253 1777.62C319.425 1790.86 301.689 1802.8 283.044 1813.43C276.709 1794.15 266.132 1778.95 251.314 1767.85C236.496 1756.75 219.777 1751.18 201.158 1751.13C177.72 1751.08 158.757 1758.59 144.269 1773.66C129.651 1788.73 122.31 1809.61 122.248 1836.3C123.085 1924.32 122.981 1968.59 121.939 1969.11C125.062 1969.9 128.122 1969.91 131.118 1969.13C134.053 1939.19 140.338 1924.1 149.974 1923.86C180.576 1922.63 216.97 1922.07 259.158 1922.17C300.434 1922.26 341.512 1923.14 382.394 1924.8ZM381.985 1932.8C349.436 1931.17 308.488 1930.29 259.139 1930.17C217.212 1930.08 180.948 1930.64 150.346 1931.87C145.527 1932.12 141.652 1946.63 138.721 1975.4C130.122 1977.59 121.724 1977.31 113.527 1974.56C114.342 1960.24 114.769 1944.68 114.808 1927.88C114.847 1911.09 114.762 1891.82 114.552 1870.07C114.342 1848.33 114.249 1832.38 114.273 1822.22C114.346 1790.71 122.412 1765.99 138.469 1748.06C154.397 1730.12 175.316 1721.19 201.227 1721.25C219.587 1721.29 236.501 1726.61 251.972 1737.19C267.442 1747.77 279.127 1761.99 287.029 1779.85C301.502 1771.03 316.37 1760.78 331.632 1749.09C350.023 1735.33 364.638 1721.83 375.476 1708.57C386.315 1695.18 392.534 1680.35 394.135 1664.08C402.473 1662.02 410.871 1662.3 419.328 1664.92C418.764 1683.54 418.163 1717.78 417.526 1767.65C374.733 1804.14 334.562 1832.63 297.014 1853.11L297 1858.97C321.219 1859.03 349.606 1858.44 382.161 1857.22C382.942 1857.22 383.724 1856.9 384.507 1856.25C385.29 1855.6 386.533 1853.06 388.236 1848.64C389.939 1844.22 391.452 1837.51 392.775 1828.53C393.968 1819.42 394.696 1814.34 394.959 1813.3C402.255 1811.11 410.262 1811.52 418.979 1814.53C417.826 1862.57 417.237 1891.74 417.213 1902.03C417.196 1909.06 417.66 1933.6 418.604 1975.66C409.612 1978.9 401.213 1978.88 393.409 1975.6C390.61 1947.34 386.802 1933.08 381.985 1932.8Z" fill="#F0F0F0"/>
<path d="M222.632 1281C220.651 1293.91 219.855 1304.36 220.242 1312.34C220.533 1320.17 223.245 1325.96 228.378 1329.72L463.702 1495.71L459.076 1515.28L175.121 1567C163.622 1569.23 153.828 1582.37 145.738 1606.41C136.866 1606.59 128.752 1604.41 121.398 1599.86C137.035 1541.61 149.311 1490.79 158.224 1447.4C166.046 1446.58 174.093 1448.48 182.364 1453.11C179.769 1469.76 178.737 1480.35 179.27 1484.89C179.802 1489.43 182.623 1491.37 187.73 1490.7L354.628 1461.3L217.374 1365.25C215.526 1364.01 213.617 1364.16 211.647 1365.7C209.581 1367.09 207.532 1369.82 205.5 1373.88C203.498 1377.83 201.671 1381.88 200.02 1386.04C198.368 1390.19 196.555 1395.32 194.581 1401.41C185.738 1401.46 177.625 1399.27 170.241 1394.85C181.642 1353.4 190.873 1313.77 197.932 1275.96C206.514 1275.32 214.747 1276.99 222.632 1281ZM213.736 1285.52C210.301 1283.64 207.323 1282.93 204.803 1283.41C201.64 1300.19 198.008 1317.26 193.906 1334.62C189.984 1351.22 185.157 1369.95 179.426 1390.8C181.467 1392.36 184.445 1393.06 188.36 1392.91C190.214 1387.33 191.844 1382.7 193.249 1379.02C194.684 1375.21 196.757 1370.68 199.469 1365.43C202.18 1360.19 205.248 1356.83 208.671 1355.37C212.125 1353.77 215.572 1354.19 219.015 1356.61L398.292 1482.06L183.039 1519.9C173.554 1521.54 168.323 1518.76 167.345 1511.57C166.271 1504.23 168.096 1486.6 172.819 1458.68C169.384 1456.8 166.406 1456.09 163.886 1456.57C156.827 1494.37 145.823 1540.94 130.874 1596.28C132.885 1597.96 135.863 1598.66 139.807 1598.39C147.718 1575.1 159.029 1562.06 173.742 1559.24L452.496 1508.31L454.607 1499.38L223.821 1336.27C217.436 1331.01 213.748 1324.26 212.757 1315.99C211.669 1307.58 211.995 1297.42 213.736 1285.52Z" fill="#F0F0F0"/>
<path d="M625.829 1047.67C622.189 1054 618.521 1060.1 614.826 1065.97C611.073 1071.65 607.351 1076.7 603.663 1081.11C599.974 1085.52 596.318 1089 592.696 1091.54C589.016 1093.91 585.46 1094.89 582.026 1094.46L295.201 1070.43C294.318 1072.46 294.162 1074.79 294.732 1077.41C308.728 1085.51 318.056 1095.78 322.716 1108.2L335.026 1109.39L482.744 1276.47C492.013 1287 492.046 1304.96 482.845 1330.37C484.119 1331.89 485.395 1332.97 486.673 1333.62C488.067 1334.32 489.638 1334.68 491.385 1334.69C497.62 1321.21 502.648 1310.4 506.471 1302.26C510.352 1294.01 513.057 1288.38 514.585 1285.36C515.937 1282.68 519.109 1276.7 524.102 1267.41C529.153 1258 536.025 1245.27 544.717 1229.24C543.676 1227.84 542.458 1226.79 541.063 1226.08C539.785 1225.43 538.156 1225.05 536.177 1224.92C530.37 1234.1 525.415 1241.44 521.314 1246.95C517.096 1252.41 513.496 1256.5 510.513 1259.22C507.531 1261.94 504.991 1263.5 502.892 1263.9C500.678 1264.24 498.583 1263.91 496.608 1262.91C495.33 1262.26 494.169 1261.39 493.126 1260.27L442.207 1202.56C448.498 1189.55 453.584 1179.06 457.464 1171.1C461.403 1163.03 464.136 1157.48 465.664 1154.46C469.014 1147.83 472.04 1142 474.742 1136.94C477.386 1131.71 479.707 1127.27 481.704 1123.61L558.624 1130.78C560.66 1131.08 562.144 1131.47 563.073 1131.94C566.21 1133.52 568.176 1136.56 568.971 1141.05C569.824 1145.42 569.54 1150.16 568.119 1155.28L561.213 1175.43C562.487 1176.95 563.763 1178.03 565.041 1178.68C566.435 1179.38 568.006 1179.74 569.753 1179.75C574.399 1169.69 579.163 1159.55 584.043 1149.33C588.983 1138.98 594.156 1128.47 599.562 1117.78C604.969 1107.09 610.551 1096.34 616.307 1085.54C622.123 1074.62 628.143 1063.44 634.369 1051.99C633.153 1050.36 631.965 1049.24 630.803 1048.66C630.106 1048.3 629.35 1048.07 628.535 1047.95C627.72 1047.83 626.818 1047.74 625.829 1047.67ZM452.07 1147.58C443.548 1164.43 436.293 1178.2 430.304 1188.88L361.652 1112.57L362.005 1111.88L464.591 1121.96C461.65 1128.35 457.476 1136.89 452.07 1147.58ZM380.129 1121.48L428.708 1175.16C436.516 1161.46 444.448 1146.06 452.505 1128.98L380.129 1121.48ZM622.113 1039.01C630.553 1039.63 637.873 1043.48 644.071 1050.55L574.166 1188.76C564.738 1187.5 557.36 1183.76 552.031 1177.57C557.74 1164.55 560.987 1154.96 561.772 1148.79C562.442 1142.56 560.215 1139.17 555.094 1138.62L485.857 1132.28C474.171 1153.36 462.767 1176.48 451.645 1201.65L497.963 1253.31C499.585 1255.01 501.651 1255.39 504.159 1254.47C506.61 1253.38 509.328 1251.03 512.315 1247.44C515.301 1243.84 518.466 1239.46 521.809 1234.29C525.152 1229.12 528.673 1223.17 532.373 1216.43C540.814 1217.05 548.133 1220.9 554.331 1227.98C533.661 1265.38 514.238 1303.78 496.062 1343.18C486.691 1342.38 479.254 1338.76 473.751 1332.33C483.069 1306.99 484.687 1290.81 478.605 1283.79L330.887 1116.71C329.722 1116.71 327.161 1116.58 323.202 1116.33C319.186 1115.9 316.597 1115.54 315.433 1115.24C310.838 1101.54 301.514 1090.55 287.46 1082.27C287.635 1069.52 290.871 1056.05 297.167 1041.87L589.229 1066.81C595.807 1067.36 601.23 1065.73 605.498 1061.9C609.651 1058.02 615.189 1050.39 622.113 1039.01Z" fill="#F0F0F0"/>
<path d="M571.867 803.293C562.124 807.567 553.934 808.612 547.296 806.429C542.54 791.256 539.323 781.095 537.645 775.945C536.059 770.704 532.9 763.443 528.167 754.162C523.434 744.698 517.921 735.927 511.628 727.849L606.953 631.761L721.537 516.26C741.947 531.923 768.188 543.65 800.261 551.44C802.588 557.968 801.287 566.49 796.357 577.006C775.064 570.922 752.506 570.736 728.682 576.447C704.858 581.974 681.299 596.477 658.006 619.956C680.197 643.438 707.007 670.769 738.436 701.948C778.553 741.747 808.268 770.309 827.58 787.634C831.184 790.842 844.136 783.241 866.436 764.829C873.911 769.127 879.69 775.227 883.772 783.129C853.321 812.345 835.665 829.402 830.805 834.302C823.468 841.697 803.297 862.769 770.289 897.52C761.618 893.503 755.656 887.588 752.403 879.775C770.269 857.699 777.676 844.964 774.624 841.569C752.247 817.535 723.356 787.957 687.953 752.835C658.373 723.49 631.107 697.174 606.154 673.887C572.997 717.293 561.568 760.428 571.867 803.293ZM557.69 711.369L604.448 661.464C636.054 690.985 665.769 719.547 693.593 747.15C729.366 782.639 758.256 812.217 780.264 835.884C786.921 842.855 780.72 857.98 761.662 881.258C762.407 883.464 764.579 885.619 768.179 887.723C783.214 871.458 798.939 855.053 815.353 838.506C834.886 818.817 853.917 800.189 872.445 782.621C871.515 780.231 869.343 778.076 865.929 776.156C833.634 805.011 813.883 816.047 806.674 809.262C775.068 779.741 745.261 751.087 717.252 723.301C681.664 687.995 652.866 658.509 630.858 634.842L652.596 614.039C699.374 569.106 745.808 553.545 791.899 567.356C793.359 564.036 793.67 561.226 792.833 558.928C764.805 549.464 741.223 546.612 722.087 550.371C702.951 554.13 682.15 567.333 659.682 589.98L612.638 637.401C602.643 647.476 587.511 662.636 567.244 682.881C546.977 703.125 531.937 718.193 522.125 728.084C524.901 731.571 527.54 735.474 530.043 739.791C532.547 744.109 534.587 747.876 536.165 751.092C537.743 754.124 539.555 758.49 541.604 764.19C543.744 769.798 545.186 773.614 545.931 775.636C546.583 777.567 547.981 781.889 550.126 788.602C552.362 795.222 553.574 798.992 553.761 799.912C556.066 800.731 558.919 800.352 562.32 798.773C558.015 781.481 555.063 768.464 553.463 759.724C551.863 750.983 551.136 741.825 551.282 732.249C551.427 722.489 553.563 715.529 557.69 711.369Z" fill="#F0F0F0"/>
<path d="M954.866 385.443C946.683 391.288 940.232 397.989 935.514 405.547C930.795 413.105 927.552 421.217 925.784 429.885C923.948 438.442 923.342 447.398 923.964 456.753C924.631 465.929 926.18 475.182 928.611 484.511C931.154 493.773 934.422 502.978 938.416 512.125C942.454 521.093 946.927 529.648 951.834 537.788C956.742 545.929 962.252 553.934 968.364 561.804C974.521 569.495 981.157 576.593 988.272 583.099C995.387 589.605 1002.85 595.295 1010.65 600.169C1018.56 604.976 1026.73 608.565 1035.16 610.937C1043.63 613.13 1052.21 613.882 1060.92 613.194C1069.74 612.439 1078.59 609.841 1087.47 605.401C1095.76 599.489 1102.3 592.809 1107.09 585.363C1111.8 577.806 1115.12 569.804 1117.02 561.359C1118.97 552.736 1119.61 543.836 1118.94 534.659C1118.32 525.304 1116.77 516.051 1114.29 506.901C1111.86 497.572 1108.63 488.423 1104.59 479.454C1100.59 470.307 1096.18 461.719 1091.34 453.69C1086.43 445.55 1080.9 437.634 1074.74 429.943C1068.63 422.073 1062.01 414.885 1054.9 408.379C1047.83 401.695 1040.34 395.949 1032.42 391.142C1024.55 386.157 1016.35 382.512 1007.81 380.207C999.388 377.835 990.678 377.005 981.68 377.716C972.794 378.36 963.856 380.935 954.866 385.443ZM1085.95 616.123C1074.91 622.778 1064.06 627.111 1053.42 629.12C1042.7 631.019 1032.32 631.197 1022.27 629.654C1012.26 627.933 1002.63 624.693 993.373 619.934C984.23 615.107 975.565 609.308 967.378 602.537C959.235 595.587 951.704 587.887 944.787 579.438C937.802 570.878 931.62 562.137 926.242 553.216C920.864 544.295 916.054 534.804 911.813 524.741C907.504 514.568 904.178 504.258 901.834 493.812C899.489 483.366 898.34 472.884 898.385 462.367C898.43 451.849 900.028 441.763 903.179 432.11C906.329 422.456 911.245 413.335 917.927 404.746C924.719 396.09 933.636 388.435 944.675 381.779C954.823 375.662 964.92 371.856 974.965 370.361C984.944 368.755 994.692 369.036 1004.21 371.204C1013.77 373.194 1023.05 376.725 1032.03 381.798C1041.02 386.87 1049.47 392.949 1057.39 400.034C1065.42 407.051 1072.88 414.874 1079.75 423.501C1086.67 431.95 1092.82 440.635 1098.19 449.556C1103.57 458.477 1108.44 467.935 1112.79 477.93C1117.08 487.813 1120.45 497.944 1122.9 508.323C1125.4 518.523 1126.8 528.781 1127.09 539.097C1127.42 549.234 1126.24 558.995 1123.53 568.38C1120.83 577.764 1116.47 586.549 1110.46 594.735C1104.38 602.809 1096.21 609.938 1085.95 616.123ZM1093.21 628.166C1100.9 623.528 1108.74 617.739 1116.72 610.8C1124.7 603.861 1131.95 595.84 1138.48 586.738C1145.11 577.569 1150.64 567.318 1155.06 555.988C1159.48 544.657 1161.95 532.37 1162.48 519.127C1163.06 505.705 1161.31 491.327 1157.24 475.995C1153.09 460.551 1145.85 444.242 1135.5 427.069C1125.34 410.231 1114.47 396.487 1102.88 385.837C1091.34 375.008 1079.55 366.681 1067.53 360.856C1055.5 355.03 1043.47 351.337 1031.43 349.777C1019.39 348.217 1007.73 348.174 996.46 349.649C985.119 351.013 974.428 353.581 964.387 357.353C954.39 360.947 945.433 365.13 937.516 369.903C929.822 374.542 921.817 380.431 913.503 387.572C905.121 394.602 897.39 402.835 890.308 412.274C883.16 421.6 877.096 432.097 872.119 443.764C867.141 455.431 864.142 468.11 863.121 481.801C862.1 495.492 863.526 510.216 867.4 525.973C871.207 541.619 878.387 558.195 888.941 575.703C899.159 592.653 910.119 606.419 921.82 617.002C933.632 627.517 945.719 635.587 958.08 641.211C970.373 646.723 982.762 650.125 995.248 651.416C1007.78 652.529 1019.9 652.213 1031.62 650.469C1043.34 648.725 1054.45 645.833 1064.93 641.791C1075.42 637.75 1084.84 633.208 1093.21 628.166ZM1103.6 632.164C1081.19 645.676 1059.35 654.353 1038.1 658.193C1016.92 662.145 996.855 661.774 977.909 657.08C958.895 652.274 941.28 643.356 925.063 630.326C908.779 617.185 894.453 600.356 882.083 579.837C869.714 559.319 861.554 538.848 857.603 518.423C853.586 497.888 853.924 478.147 858.619 459.201C863.246 440.143 872.252 422.17 885.638 405.283C898.956 388.284 916.822 373.028 939.236 359.516C960.312 346.81 981.251 338.292 1002.05 333.961C1022.97 329.563 1043 329.499 1062.15 333.769C1081.34 337.86 1099.33 346.397 1116.13 359.381C1133.04 372.297 1148.08 389.684 1161.25 411.54C1174.5 433.508 1182.88 454.984 1186.41 475.967C1189.98 496.772 1189.13 516.67 1183.86 535.662C1178.69 554.587 1169.25 572.215 1155.53 588.545C1141.99 604.919 1124.68 619.459 1103.6 632.164Z" fill="#F0F0F0"/>
<path d="M1223.96 261.487C1222.35 256.939 1207.33 257.355 1178.92 262.735C1176.66 259.194 1174.99 255.612 1173.92 251.99C1172.71 247.868 1172.24 243.257 1172.5 238.158C1183.49 234.921 1198.46 230.919 1217.42 226.152C1236.47 221.223 1249.67 217.673 1257.04 215.503C1262.41 213.922 1272.74 210.744 1288.03 205.97C1303.32 201.197 1316.59 197.155 1327.83 193.845C1330.18 197.224 1331.93 200.85 1333.07 204.722C1334.14 208.344 1334.78 212.363 1334.99 216.78C1308.2 227.656 1295.35 235.441 1296.47 240.136C1298.54 249.027 1311.73 294.754 1336.04 377.316C1345.31 408.793 1357.09 430.573 1371.37 442.656C1385.65 454.739 1404.46 458.021 1427.82 452.503C1451.61 443.869 1467.69 429.565 1476.06 409.59C1484.52 389.454 1484.5 364.959 1476 336.105C1458.53 276.775 1445.01 232.232 1435.43 202.475C1433.38 196.428 1418.48 195.385 1390.74 199.347C1388.85 196.644 1387.45 193.731 1386.53 190.608C1385.43 186.861 1385 182.169 1385.24 176.533C1420.88 167.124 1442.14 161.408 1449.01 159.385C1462.37 155.45 1479.31 150.055 1499.83 143.2C1503.16 148.056 1505.19 151.733 1505.92 154.231C1507.07 158.103 1507.33 162.233 1506.72 166.62C1481.6 176.731 1469.89 185.134 1471.59 191.827C1477.44 216.302 1489.96 261.14 1509.16 326.341C1514.9 345.826 1517.45 363.942 1516.82 380.688C1516.15 397.31 1513.18 411.419 1507.9 423.016C1502.76 434.576 1495.82 444.899 1487.09 453.984C1478.37 463.069 1469.44 470.107 1460.33 475.099C1451.25 480.216 1441.71 484.246 1431.72 487.188C1411.73 493.073 1393.9 496.356 1378.22 497.037C1362.7 497.806 1347.56 495.477 1332.79 490.052C1318.16 484.589 1305.26 474.203 1294.1 458.893C1282.94 443.583 1273.63 423.25 1266.16 397.894C1248.17 336.815 1234.11 291.346 1223.96 261.487ZM1267.5 248.258C1264.96 238.691 1284.05 226.554 1324.78 211.845C1324.83 209.251 1323.95 206.253 1322.14 202.852C1289.74 213.612 1264.36 221.695 1246 227.102C1230.64 231.626 1208.68 237.482 1180.12 244.67C1179.82 247.337 1180.7 250.335 1182.77 253.663C1188.53 252.507 1193.3 251.646 1197.07 251.079C1200.84 250.512 1205.53 250.081 1211.15 249.785C1216.76 249.49 1221.31 250.186 1224.79 251.875C1228.36 253.402 1230.65 255.852 1231.64 259.225C1244.55 298.452 1258.61 343.921 1273.84 395.632C1280.83 419.365 1289.59 438.504 1300.11 453.05C1310.6 467.471 1322.78 477.254 1336.65 482.401C1350.61 487.386 1364.81 489.516 1379.25 488.792C1393.86 488.155 1410.59 485.06 1429.46 479.507C1438.7 476.785 1447.57 473.02 1456.06 468.212C1464.71 463.492 1473.08 456.887 1481.17 448.397C1489.26 439.908 1495.72 430.269 1500.55 419.48C1505.47 408.53 1508.19 395.174 1508.71 379.412C1509.22 363.65 1506.81 346.714 1501.48 328.602C1483.86 268.772 1471.3 223.81 1463.8 193.714C1461.06 182.576 1472.88 171.767 1499.25 161.287C1499.62 158.87 1498.76 155.934 1496.65 152.481C1473.39 160.145 1456.77 165.449 1446.77 168.391C1431.16 172.988 1413.25 177.855 1393.05 182.99C1392.63 185.283 1393.5 188.218 1395.64 191.796C1423.73 186.239 1439.52 188.92 1443 199.838C1452.58 229.595 1466.14 274.263 1483.68 333.843C1493.32 366.569 1492.92 394.036 1482.5 416.245C1472.16 438.293 1452.5 453.583 1423.52 462.116C1392.04 471.384 1367.38 469.893 1349.52 457.642C1331.78 445.354 1317.67 421.411 1307.19 385.812C1285.2 311.119 1271.97 265.267 1267.5 248.258Z" fill="#F0F0F0"/>
<path d="M1690.27 145.28L1690.66 145.263C1698.7 144.377 1709.09 143.645 1721.84 143.066C1741.61 142.17 1756.98 147.599 1767.94 159.354C1779.03 171.103 1785.02 186.733 1785.9 206.244C1786.8 226.016 1782.77 243.404 1773.8 258.409C1764.96 273.278 1750.39 281.172 1730.1 282.093C1718.14 282.635 1706.23 281.676 1694.39 279.216C1692.31 233.429 1690.94 188.784 1690.27 145.28ZM1777.9 206.607C1777.14 189.828 1771.43 175.945 1760.76 164.958C1750.23 153.966 1736.73 149.495 1720.27 151.545C1721.5 201.671 1722.8 241.822 1724.17 272C1726.81 272.662 1730.8 273.132 1736.16 273.411C1751.3 271.03 1762.23 263.365 1768.94 250.418C1775.65 237.47 1778.64 222.867 1777.9 206.607ZM1663.99 393.601C1664.17 403.238 1649.36 410.166 1619.58 414.385C1618.63 416.513 1618.77 419.57 1619.99 423.555C1642.07 421.772 1664.75 420.352 1688.03 419.296C1715.74 418.039 1742.36 417.223 1767.89 416.847C1768.83 414.719 1768.7 411.662 1767.47 407.677C1724.17 407.034 1702.16 401.776 1701.45 391.902C1698.5 355.41 1696.37 322.791 1695.06 294.044C1709.9 296.369 1723.56 297.249 1736.04 296.682C1759.17 335.388 1789.09 374.176 1825.78 413.048C1832.42 412.747 1841.98 412.379 1854.47 411.943C1867.1 411.5 1878.42 411.117 1888.44 410.793C1898.59 410.463 1908.23 410.222 1917.34 410.069C1918.28 407.68 1918.14 404.623 1916.93 400.899C1895.52 400.305 1877.27 395.919 1862.17 387.741C1847.2 379.426 1829.41 363.68 1808.81 340.501C1794.78 324.323 1782.01 307.176 1770.5 289.059C1789.46 281.812 1804.13 270.523 1814.52 255.194C1824.9 239.864 1829.67 222.898 1828.83 204.298C1827.77 180.884 1819.36 162.3 1803.62 148.547C1787.87 134.663 1766.66 128.325 1740 129.535C1652.11 134.563 1607.89 136.569 1607.32 135.552C1606.68 138.709 1606.82 141.766 1607.74 144.722C1637.78 146.227 1653.16 151.786 1653.85 161.4C1656.54 191.909 1658.84 228.235 1660.75 270.379C1662.62 311.613 1663.7 352.687 1663.99 393.601ZM1655.98 393.574C1656.06 360.984 1654.99 320.04 1652.75 270.742C1650.85 228.858 1648.56 192.662 1645.87 162.153C1645.39 157.352 1630.72 154.173 1601.84 152.615C1599.24 144.13 1599.12 135.729 1601.48 127.41C1615.82 127.542 1631.38 127.227 1648.16 126.466C1664.94 125.705 1684.19 124.701 1705.9 123.456C1727.61 122.211 1743.54 121.358 1753.68 120.898C1785.16 119.47 1810.24 126.349 1828.91 141.534C1847.58 156.589 1857.51 177.059 1858.68 202.944C1859.51 221.284 1855.01 238.433 1845.18 254.39C1835.34 270.346 1821.7 282.696 1804.24 291.439C1813.74 305.476 1824.68 319.838 1837.08 334.526C1851.7 352.241 1865.89 366.196 1879.65 376.391C1893.53 386.579 1908.64 392.085 1924.97 392.909C1927.43 401.139 1927.55 409.541 1925.33 418.113C1906.71 418.437 1872.48 419.468 1822.63 421.207C1784.15 380.201 1753.78 341.432 1731.53 304.903L1725.68 305.169C1726.77 329.362 1728.71 357.689 1731.48 390.149C1731.52 390.929 1731.88 391.695 1732.57 392.446C1733.25 393.197 1735.84 394.318 1740.34 395.808C1744.84 397.298 1751.61 398.49 1760.64 399.384C1769.8 400.142 1774.91 400.627 1775.96 400.84C1778.5 408.024 1778.47 416.041 1775.88 424.892C1727.83 426.028 1698.67 426.829 1688.4 427.295C1681.37 427.614 1656.88 429.246 1614.91 432.193C1611.25 423.365 1610.87 414.975 1613.77 407.023C1641.87 402.881 1655.93 398.398 1655.98 393.574Z" fill="#F0F0F0"/>
<path d="M2101.66 135.147C2120.03 138.171 2136.5 143.521 2151.08 151.197C2165.65 158.873 2178.98 164.497 2191.06 168.068C2180.31 190.845 2175.82 216.563 2177.57 245.223C2170.11 249.669 2162.06 251.644 2153.43 251.148C2152.81 248.538 2151.78 243.156 2150.35 235.003C2149.07 226.743 2147.62 219.907 2146.01 214.495C2144.52 209.103 2142.18 202.847 2139 195.725C2135.94 188.624 2131.26 182.64 2124.93 177.773C2118.76 172.798 2111.35 168.874 2102.72 166.002C2089.55 165.023 2078.88 167.357 2070.69 173.004C2062.5 178.65 2057.52 186.87 2055.74 197.662C2053.93 208.711 2055.25 218.299 2059.72 226.424C2064.21 234.42 2070.66 240.957 2079.06 246.035C2087.61 251.005 2097.12 255.738 2107.6 260.233C2118.1 264.599 2128.43 269.598 2138.58 275.228C2148.76 280.73 2157.84 287.305 2165.82 294.952C2173.95 302.491 2179.85 312.765 2183.51 325.772C2187.18 338.78 2187.58 353.956 2184.73 371.301C2181.26 392.372 2172.18 409.483 2157.48 422.635C2142.78 435.787 2126.6 444.276 2108.95 448.101C2091.3 451.926 2073.8 452.412 2056.45 449.558C2018.29 443.278 1981.91 428.647 1947.29 405.664C1950.79 389.216 1952.84 379.13 1953.46 375.404C1956.88 354.59 1958.57 331.907 1958.52 307.354C1970.99 303.732 1983.94 305.6 1997.38 312.958C1997.34 342.905 2002.84 366.772 2013.9 384.559C2025.09 402.368 2038.7 413.514 2054.72 417.998C2070.18 419.486 2082.75 416.474 2092.43 408.962C2102.26 401.342 2108.31 390.659 2110.57 376.912C2112.47 365.348 2111.38 355.14 2107.3 346.286C2103.23 337.304 2097.13 329.899 2088.98 324.072C2080.85 318.116 2071.88 312.484 2062.07 307.174C2052.38 301.885 2042.6 296.382 2032.72 290.666C2022.86 284.82 2013.96 278.342 2006.03 271.23C1998.22 264.139 1992.46 255.075 1988.73 244.037C1985 232.999 1984.34 220.221 1986.73 205.703C1988.88 192.598 1992.87 181.18 1998.7 171.45C2004.65 161.74 2011.48 154.288 2019.2 149.091C2027.05 143.917 2035.81 139.949 2045.51 137.189C2055.32 134.45 2064.79 133.04 2073.91 132.957C2083.16 132.895 2092.41 133.625 2101.66 135.147ZM2100.36 143.049C2089.57 141.273 2078.88 140.835 2068.31 141.734C2057.76 142.505 2047.2 144.924 2036.64 148.991C2026.2 153.08 2017.19 160.109 2009.61 170.079C2002.03 180.048 1997.04 192.356 1994.63 207.003C1992.49 219.979 1993.35 231.601 1997.2 241.868C2001.08 252.007 2006.96 260.364 2014.85 266.941C2022.87 273.539 2031.82 279.697 2041.7 285.413C2051.6 291.001 2061.36 296.633 2070.99 302.307C2080.74 308.002 2089.63 314.085 2097.67 320.554C2105.71 327.024 2111.69 335.199 2115.61 345.081C2119.55 354.834 2120.5 365.878 2118.47 378.212C2115.66 395.3 2107.93 408.213 2095.27 416.951C2082.62 425.689 2066.27 428.41 2046.22 425.111C2026.95 421.94 2010.35 410.961 1996.42 392.173C1982.49 373.386 1975.52 347.563 1975.52 314.704C1973.22 312.611 1970.2 312.114 1966.46 313.214C1966.61 333.956 1964.91 355.12 1961.36 376.704C1960.36 382.743 1958.7 391.244 1956.37 402.209C1985.8 422.228 2014.97 434.616 2043.88 439.373C2067.78 443.305 2091.04 439.875 2113.66 429.083C2136.31 418.162 2149.74 399.918 2153.94 374.35C2156.33 359.832 2155.52 347.097 2151.52 336.145C2147.54 325.065 2141.45 315.948 2133.26 308.793C2125.07 301.639 2115.85 295.108 2105.6 289.199C2095.36 283.291 2085.14 277.65 2074.94 272.277C2064.76 266.775 2055.48 261.025 2047.1 255.027C2038.84 249.05 2032.57 241.485 2028.27 232.332C2023.99 223.051 2022.82 212.5 2024.76 200.68C2027.49 184.106 2035.26 171.792 2048.06 163.738C2060.87 155.685 2077.55 153.349 2098.11 156.732C2133.83 162.61 2154.36 191.391 2159.71 243.076C2163.59 244.374 2166.5 243.929 2168.44 241.741C2169.36 209.694 2163.67 186.127 2151.37 171.04C2139.21 155.973 2122.2 146.643 2100.36 143.049Z" fill="#F0F0F0"/>
<path d="M2591.24 619.033C2584.85 615.492 2578.7 611.918 2572.78 608.313C2567.03 604.648 2561.93 601.005 2557.46 597.384C2553 593.763 2549.46 590.162 2546.86 586.579C2544.44 582.937 2543.41 579.395 2543.78 575.956L2563.4 288.795C2561.35 287.943 2559.02 287.823 2556.41 288.433C2548.53 302.553 2538.41 312.037 2526.06 316.887L2525.05 329.214L2360.26 479.484C2349.88 488.914 2331.92 489.223 2306.38 480.414C2304.88 481.711 2303.81 483.003 2303.19 484.291C2302.5 485.696 2302.17 487.272 2302.19 489.019C2315.77 495.046 2326.65 499.908 2334.84 503.605C2343.15 507.359 2348.83 509.977 2351.87 511.458C2354.57 512.768 2360.6 515.848 2369.97 520.697C2379.45 525.603 2392.28 532.279 2408.44 540.724C2409.83 539.661 2410.86 538.427 2411.55 537.022C2412.17 535.734 2412.53 534.099 2412.63 532.118C2403.37 526.453 2395.95 521.612 2390.37 517.595C2384.86 513.462 2380.71 509.925 2377.94 506.985C2375.17 504.045 2373.57 501.529 2373.14 499.437C2372.77 497.228 2373.07 495.128 2374.04 493.138C2374.66 491.85 2375.53 490.676 2376.62 489.616L2433.54 437.816C2446.65 443.906 2457.21 448.829 2465.23 452.587C2473.37 456.401 2478.96 459.049 2482 460.53C2488.68 463.778 2494.56 466.713 2499.66 469.337C2504.92 471.901 2509.4 474.153 2513.09 476.093L2507.11 553.115C2506.84 555.156 2506.48 556.644 2506.02 557.581C2504.48 560.742 2501.48 562.755 2497 563.618C2492.64 564.538 2487.89 564.327 2482.76 562.985L2462.51 556.39C2461.01 557.687 2459.94 558.979 2459.32 560.267C2458.63 561.672 2458.3 563.248 2458.32 564.995C2468.44 569.487 2478.65 574.094 2488.95 578.816C2499.37 583.596 2509.96 588.607 2520.74 593.848C2531.51 599.09 2542.34 604.506 2553.23 610.096C2564.24 615.742 2575.51 621.59 2587.05 627.639C2588.67 626.399 2589.76 625.193 2590.33 624.022C2590.67 623.32 2590.9 622.56 2591 621.744C2591.11 620.927 2591.19 620.024 2591.24 619.033ZM2488.67 446.831C2471.69 438.57 2457.81 431.527 2447.04 425.703L2522.28 355.886L2522.98 356.228L2514.48 458.958C2508.04 456.115 2499.44 452.073 2488.67 446.831ZM2513.66 374.498L2460.73 423.896C2474.56 431.493 2490.07 439.188 2507.28 446.981L2513.66 374.498ZM2599.84 615.185C2599.35 623.634 2595.62 631.012 2588.64 637.318L2449.37 569.546C2450.49 560.1 2454.11 552.666 2460.22 547.242C2473.33 552.75 2482.97 555.849 2489.15 556.54C2495.39 557.113 2498.74 554.835 2499.21 549.705L2504.49 480.379C2483.23 469.019 2459.93 457.972 2434.6 447.238L2383.66 494.345C2381.99 495.993 2381.63 498.064 2382.59 500.558C2383.72 502.992 2386.11 505.674 2389.75 508.605C2393.39 511.535 2397.82 514.632 2403.04 517.896C2408.26 521.159 2414.27 524.588 2421.06 528.184C2420.57 536.633 2416.83 544.011 2409.86 550.317C2372.14 530.224 2333.44 511.394 2293.77 493.827C2294.43 484.444 2297.93 476.952 2304.27 471.352C2329.76 480.279 2345.96 481.647 2352.88 475.458L2517.67 325.188C2517.66 324.024 2517.75 321.46 2517.94 317.498C2518.3 313.476 2518.62 310.881 2518.9 309.714C2532.54 304.908 2543.38 295.416 2551.44 281.237C2564.19 281.216 2577.71 284.244 2591.98 290.322L2571.54 582.732C2571.09 589.318 2572.81 594.715 2576.7 598.924C2580.64 603.016 2588.36 608.437 2599.84 615.185Z" fill="#F0F0F0"/>
<path d="M2872.69 696.787L2889.09 677.152C2908.37 654.069 2930.54 626.522 2955.59 594.511C2959.81 589.048 2951.83 576.359 2931.65 556.445C2933.18 551.779 2935.15 547.997 2937.57 545.099C2939.07 543.301 2942.32 540.837 2947.31 537.709C2961.99 550.998 2976.98 564.029 2992.27 576.802C3007.66 589.658 3023.7 602.549 3040.39 615.473C3038.2 620.939 3036.35 624.571 3034.85 626.369C3032.43 629.267 3029.05 631.88 3024.73 634.209C3002.38 618.927 2988.97 613.75 2984.52 618.679C2965.6 638.678 2939.2 668.962 2905.3 709.531C2867.07 755.297 2836.79 792.861 2814.46 822.225L2801.92 812.257L2805.06 519.401C2803.56 521.2 2800.76 524.455 2796.65 529.168C2792.63 533.781 2789.53 537.387 2787.36 539.985C2747.04 588.248 2713.33 629.91 2686.25 664.969C2681.94 670.532 2689.88 683.271 2710.06 703.185C2708.53 707.851 2706.56 711.633 2704.14 714.531C2702.3 716.73 2698.89 719.393 2693.9 722.521C2679.01 709.065 2664.03 696.034 2648.94 683.428C2633.55 670.572 2617.51 657.681 2600.82 644.757C2603.01 639.291 2605.03 635.459 2606.86 633.261C2609.28 630.363 2612.66 627.75 2616.98 625.421C2639.33 640.704 2652.78 645.83 2657.32 640.801C2676.05 620.819 2702.36 590.543 2736.26 549.974C2762.22 518.897 2784.99 490.834 2804.56 465.785C2802.32 455.262 2794.97 443.95 2782.52 431.848C2783.27 427.897 2785.11 424.174 2788.03 420.676C2791.12 416.979 2794.87 414.425 2799.27 413.013C2819.32 431.46 2845.28 453.999 2877.16 480.63L2872.69 696.787ZM2899.16 704.397C2924.45 674.12 2950.86 643.836 2978.37 613.545C2986.28 604.886 3001.92 608.615 3025.27 624.732C3027.49 623.701 3029.45 621.353 3031.16 617.687C3011.77 602.509 2998.13 591.622 2990.23 585.027C2977.74 574.591 2963.76 562.395 2948.27 548.439C2944.96 550.768 2943 553.117 2942.38 555.483C2962.6 575.764 2969.05 590.485 2961.73 599.645C2936.69 631.656 2914.52 659.203 2895.24 682.286C2883.97 695.776 2868.57 713.795 2849.05 736.344L2852.09 470.121C2829.61 451.337 2811.3 435.368 2797.18 422.213C2794.38 423.943 2792.42 426.292 2791.3 429.258C2803.52 440.826 2810.74 453.814 2812.95 468.221C2793.47 493.171 2769.95 522.133 2742.4 555.108C2717.11 585.385 2690.79 615.661 2663.46 645.935C2655.47 654.695 2639.79 651.016 2616.44 634.898C2614.3 635.829 2612.34 638.178 2610.55 641.943C2629.84 657.038 2643.48 667.925 2651.48 674.604C2663.97 685.039 2677.95 697.235 2693.44 711.192C2696.83 708.762 2698.79 706.414 2699.33 704.147C2679.11 683.866 2672.7 669.095 2680.1 659.835C2705.07 627.924 2727.19 600.427 2746.47 577.344C2768.51 550.964 2790.64 525.085 2812.87 499.705L2814.36 500.957L2810.05 808.616L2813.15 810.695C2831.67 786.295 2860.34 750.862 2899.16 704.397Z" fill="#F0F0F0"/>
<path d="M3148.51 780.203C3158.21 790.703 3167.68 802.334 3176.92 815.093C3187.08 829.118 3193.96 843.27 3197.55 857.551C3201.22 871.936 3202.05 885.077 3200.06 896.973C3198.25 908.897 3194.25 920.473 3188.08 931.7C3181.9 942.928 3174.78 952.746 3166.72 961.155C3158.85 969.593 3150.06 977.326 3140.36 984.353C3108.41 1007.5 3076.34 1017.06 3044.17 1013.03C3011.99 1009.01 2983.68 990.126 2959.24 956.382L2940.76 930.212C2983.76 897.458 3016.07 873.251 3037.68 857.592C3076.81 829.253 3113.75 803.457 3148.51 780.203ZM2947.44 977.712C2921.85 942.387 2895.87 907.42 2869.52 872.811C2874.88 864.904 2881.68 859.977 2889.92 858.03C2908.82 879.232 2920.29 888.525 2924.35 885.91C2958.37 863.191 2992 839.8 3025.21 815.739C3059.17 791.143 3088.15 769.342 3112.17 750.337C3115.92 747.3 3110.51 733.289 3095.95 708.304C3101.4 701.623 3108.36 696.907 3116.81 694.157C3126 707.28 3155.15 747.743 3204.26 815.547C3214.88 830.204 3223.72 844.298 3230.79 857.829C3237.94 871.465 3243.39 886.649 3247.15 903.38C3251.01 920.035 3251.74 935.909 3249.33 951.001C3246.91 966.093 3240.26 981.766 3229.36 998.02C3218.47 1014.27 3203.05 1029.62 3183.12 1044.06C3164.14 1057.8 3144.99 1066.77 3125.68 1070.96C3106.36 1075.14 3088.44 1075.26 3071.91 1071.31C3055.47 1067.47 3039.26 1060.64 3023.3 1050.82C3007.45 1040.92 2993.54 1029.93 2981.58 1017.85C2969.51 1005.86 2958.13 992.475 2947.44 977.712ZM3160.47 808.686C3122.54 834.232 3087.49 858.653 3055.33 881.951C3029.18 900.894 2998.85 923.506 2964.35 949.786C2989.25 982.391 3016.65 1000.57 3046.54 1004.32C3076.43 1008.07 3106.14 999.256 3135.66 977.868C3147.16 969.542 3157.13 960.227 3165.58 949.923C3174.14 939.543 3181.2 927.758 3186.76 914.567C3192.32 901.376 3193.95 886.766 3191.67 870.736C3189.56 854.735 3183.07 838.779 3172.18 822.867C3168.44 817.7 3164.54 812.973 3160.47 808.686ZM2879.53 872.313C2896.58 894.526 2918.67 924.35 2945.79 961.784C2955.49 975.176 2965.85 987.368 2976.86 998.36C2988.06 1009.38 3001.06 1019.34 3015.86 1028.23C3030.67 1037.12 3045.68 1043.21 3060.92 1046.48C3076.15 1049.75 3092.96 1049.32 3111.34 1045.17C3129.79 1041.13 3147.98 1032.61 3165.91 1019.63C3242.99 963.788 3250.87 893.532 3189.53 808.856C3183.88 801.053 3175.7 790.095 3164.99 775.983C3154.29 761.871 3144.7 748.963 3136.22 737.258C3127.82 725.659 3120.15 714.41 3113.22 703.512C3110.71 704.044 3108.23 705.839 3105.79 708.897C3121.03 734.831 3124.83 750.73 3117.18 756.593C3093.17 775.598 3064.08 797.475 3029.91 822.224C2996.48 846.438 2962.76 869.905 2928.73 892.624C2920.77 898.066 2906.85 889.5 2886.96 866.928C2883.77 867.63 2881.29 869.425 2879.53 872.313Z" fill="#F0F0F0"/>
<path d="M3317.49 1194.08C3318.2 1183.46 3321.06 1175.71 3326.06 1170.84C3341.72 1173.63 3352.21 1175.48 3357.56 1176.37C3362.94 1177.38 3370.84 1177.94 3381.25 1178.03C3391.83 1178.21 3402.16 1177.37 3412.23 1175.52L3453.39 1304.47L3502.86 1459.46C3479.53 1470.32 3457.01 1488.17 3435.28 1513.01C3428.41 1512.06 3421.45 1506.97 3414.41 1497.73C3429.64 1481.66 3440.23 1461.75 3446.18 1437.98C3452.29 1414.3 3450.32 1386.7 3440.26 1355.2C3409.18 1364.02 3372.55 1375.16 3330.38 1388.63C3276.54 1405.81 3237.48 1418.96 3213.19 1428.08C3208.68 1429.79 3209.44 1444.79 3215.46 1473.07C3208.19 1477.72 3200.11 1480.02 3191.22 1479.99C3179.38 1439.48 3172.42 1415.94 3170.32 1409.37C3167.15 1399.45 3157.79 1371.82 3142.23 1326.49C3149.79 1320.65 3157.8 1318.1 3166.23 1318.83C3177.55 1344.87 3185.42 1357.33 3189.84 1356.19C3221.49 1347.45 3261.08 1335.5 3308.58 1320.34C3348.28 1307.67 3384.22 1295.65 3416.4 1284.29C3393.23 1234.82 3360.26 1204.75 3317.49 1194.08ZM3405.56 1223.99L3428.2 1288.52C3387.42 1302.9 3348.36 1316.05 3311.02 1327.97C3263.01 1343.29 3223.43 1355.24 3192.27 1363.82C3183.02 1366.5 3172.47 1354.01 3160.63 1326.35C3158.33 1325.99 3155.42 1326.92 3151.89 1329.14C3159.36 1349.99 3166.64 1371.52 3173.73 1393.72C3182.16 1420.15 3189.89 1445.63 3196.9 1470.18C3199.45 1470.46 3202.37 1469.53 3205.65 1467.39C3194.99 1425.42 3194.33 1402.8 3203.68 1399.54C3244.46 1385.16 3283.65 1371.97 3321.23 1359.97C3368.99 1344.73 3408.45 1332.82 3439.61 1324.24L3448.01 1353.13C3466.24 1415.38 3458.57 1463.75 3425.03 1498.24C3427.3 1501.07 3429.64 1502.64 3432.07 1502.96C3453.41 1482.48 3466.84 1462.89 3472.35 1444.18C3477.86 1425.47 3475.77 1400.93 3466.07 1370.54L3445.76 1306.9C3441.44 1293.38 3434.99 1272.96 3426.41 1245.63C3417.82 1218.3 3411.41 1198 3407.17 1184.72C3402.8 1185.57 3398.12 1186.11 3393.13 1186.33C3388.15 1186.56 3383.86 1186.63 3380.28 1186.54C3376.86 1186.54 3372.15 1186.13 3366.15 1185.31C3360.19 1184.62 3356.14 1184.13 3354 1183.86C3351.99 1183.54 3347.51 1182.79 3340.56 1181.59C3333.66 1180.51 3329.76 1179.84 3328.85 1179.58C3327.06 1181.25 3326.08 1183.95 3325.91 1187.7C3343.23 1191.87 3356.14 1195.27 3364.63 1197.89C3373.12 1200.51 3381.58 1204.1 3390 1208.66C3398.59 1213.29 3403.78 1218.41 3405.56 1223.99Z" fill="#F0F0F0"/>
<path d="M3507 1641.75L3507.03 1642.14C3508.17 1650.14 3509.23 1660.51 3510.21 1673.23C3511.74 1692.96 3506.8 1708.5 3495.4 1719.83C3484.01 1731.28 3468.58 1737.77 3449.11 1739.27C3429.38 1740.8 3411.87 1737.32 3396.59 1728.84C3381.44 1720.48 3373.09 1706.17 3371.52 1685.92C3370.6 1673.97 3371.18 1662.04 3373.26 1650.13C3418.96 1646.6 3463.54 1643.8 3507 1641.75ZM3448.49 1731.29C3465.24 1729.99 3478.93 1723.84 3489.57 1712.83C3500.23 1701.95 3504.26 1688.32 3501.69 1671.93C3451.63 1674.76 3411.54 1677.34 3381.42 1679.67C3380.84 1682.32 3380.5 1686.33 3380.39 1691.7C3383.25 1706.75 3391.26 1717.43 3404.42 1723.73C3417.57 1730.02 3432.26 1732.54 3448.49 1731.29ZM3257.96 1623.39C3248.34 1623.88 3240.94 1609.3 3235.78 1579.66C3233.62 1578.78 3230.57 1579.02 3226.62 1580.37C3229.11 1602.38 3231.25 1625 3233.05 1648.24C3235.19 1675.89 3236.85 1702.47 3238.04 1727.98C3240.2 1728.85 3243.25 1728.62 3247.19 1727.27C3246.46 1683.97 3251.01 1661.8 3260.86 1660.78C3297.24 1656.66 3329.77 1653.49 3358.46 1651.27C3356.61 1666.17 3356.17 1679.86 3357.13 1692.32C3319.18 1716.67 3281.36 1747.81 3243.68 1785.72C3244.19 1792.34 3244.87 1801.89 3245.7 1814.36C3246.54 1826.96 3247.29 1838.27 3247.93 1848.27C3248.58 1858.41 3249.13 1868.03 3249.58 1877.14C3251.99 1878 3255.04 1877.76 3258.73 1876.43C3258.64 1855.02 3262.44 1836.64 3270.13 1821.29C3277.97 1806.05 3293.14 1787.77 3315.65 1766.44C3331.37 1751.9 3348.11 1738.6 3365.85 1726.51C3373.69 1745.24 3385.44 1759.54 3401.1 1769.43C3416.75 1779.32 3433.86 1783.55 3452.42 1782.11C3475.79 1780.31 3494.1 1771.32 3507.34 1755.14C3520.72 1738.96 3526.38 1717.56 3524.32 1690.95C3516.49 1603.27 3513.08 1559.13 3514.08 1558.53C3510.9 1557.99 3507.85 1558.23 3504.93 1559.24C3504.38 1589.32 3499.31 1604.86 3489.72 1605.86C3459.32 1609.52 3423.08 1612.97 3381.02 1616.23C3339.87 1619.41 3298.85 1621.8 3257.96 1623.39ZM3257.74 1615.38C3290.31 1614.43 3331.2 1612.05 3380.4 1608.24C3422.21 1605.01 3458.31 1601.57 3488.72 1597.91C3493.5 1597.28 3496.21 1582.51 3496.85 1553.59C3505.25 1550.72 3513.64 1550.34 3522.03 1552.43C3522.35 1566.77 3523.16 1582.31 3524.46 1599.06C3525.76 1615.81 3527.37 1635.01 3529.31 1656.67C3531.24 1678.33 3532.6 1694.22 3533.39 1704.35C3535.82 1735.77 3529.74 1761.05 3515.16 1780.2C3500.7 1799.34 3480.56 1809.91 3454.73 1811.91C3436.42 1813.32 3419.14 1809.37 3402.88 1800.05C3386.61 1790.73 3373.84 1777.48 3364.54 1760.31C3350.81 1770.25 3336.81 1781.65 3322.52 1794.51C3305.28 1809.69 3291.79 1824.31 3282.04 1838.39C3272.29 1852.59 3267.27 1867.87 3266.97 1884.22C3258.82 1886.94 3250.43 1887.33 3241.79 1885.38C3240.87 1866.78 3238.75 1832.59 3235.43 1782.83C3275.19 1743.06 3312.97 1711.47 3348.77 1688.07L3348.32 1682.23C3324.17 1684.09 3295.92 1686.93 3263.56 1690.74C3262.79 1690.8 3262.03 1691.18 3261.3 1691.89C3260.57 1692.6 3259.54 1695.23 3258.19 1699.77C3256.84 1704.32 3255.87 1711.12 3255.26 1720.18C3254.8 1729.36 3254.48 1734.47 3254.3 1735.53C3247.2 1738.3 3239.18 1738.53 3230.25 1736.22C3227.59 1688.23 3225.86 1659.11 3225.06 1648.86C3224.52 1641.85 3222.11 1617.42 3217.83 1575.56C3226.54 1571.63 3234.91 1570.98 3242.95 1573.62C3247.98 1601.57 3252.91 1615.49 3257.74 1615.38Z" fill="#F0F0F0"/>
<path d="M3209.23 2208.18C3210.74 2201.04 3212.36 2194.11 3214.08 2187.39C3215.9 2180.82 3217.89 2174.88 3220.05 2169.55C3222.2 2164.22 3224.61 2159.79 3227.28 2156.25C3230.05 2152.86 3233.14 2150.85 3236.53 2150.19L3516.87 2084.94C3517.08 2082.73 3516.52 2080.47 3515.17 2078.15C3499.36 2074.74 3487.33 2067.84 3479.08 2057.44L3467 2060.09L3275.09 1946.48C3263.03 1939.32 3257.48 1922.23 3258.43 1895.23C3256.75 1894.17 3255.21 1893.53 3253.79 1893.31C3252.25 1893.07 3250.64 1893.21 3248.98 1893.74C3247.19 1908.49 3245.72 1920.32 3244.58 1929.23C3243.43 1938.28 3242.58 1944.47 3242.06 1947.81C3241.59 1950.77 3240.41 1957.44 3238.52 1967.82C3236.6 1978.33 3233.97 1992.54 3230.62 2010.47C3232.05 2011.48 3233.53 2012.11 3235.07 2012.36C3236.49 2012.58 3238.16 2012.45 3240.08 2011.96C3242.79 2001.44 3245.25 1992.93 3247.45 1986.43C3249.79 1979.94 3251.96 1974.94 3253.96 1971.43C3255.96 1967.93 3257.9 1965.66 3259.78 1964.64C3261.78 1963.63 3263.88 1963.3 3266.06 1963.65C3267.48 1963.87 3268.85 1964.35 3270.19 1965.09L3336.37 2004.36C3334.39 2018.68 3332.77 2030.22 3331.52 2038.99C3330.25 2047.88 3329.36 2054 3328.83 2057.35C3327.68 2064.68 3326.59 2071.17 3325.58 2076.81C3324.67 2082.59 3323.82 2087.54 3323.05 2091.63L3247.64 2108.44C3245.61 2108.78 3244.08 2108.87 3243.06 2108.71C3239.58 2108.16 3236.78 2105.88 3234.64 2101.85C3232.49 2097.95 3231.3 2093.35 3231.08 2088.05L3231.46 2066.75C3229.78 2065.7 3228.24 2065.06 3226.82 2064.84C3225.28 2064.59 3223.67 2064.74 3222.01 2065.27C3220.68 2076.26 3219.26 2087.37 3217.76 2098.6C3216.23 2109.96 3214.54 2121.56 3212.68 2133.39C3210.82 2145.23 3208.81 2157.17 3206.65 2169.22C3204.47 2181.4 3202.18 2193.89 3199.77 2206.69C3201.43 2207.88 3202.9 2208.57 3204.19 2208.77C3204.96 2208.89 3205.75 2208.89 3206.57 2208.75C3207.38 2208.61 3208.26 2208.42 3209.23 2208.18ZM3343.88 2059.71C3346.81 2041.06 3349.49 2025.73 3351.9 2013.72L3440.68 2065.25L3440.56 2066.02L3339.84 2087.94C3340.67 2080.96 3342.02 2071.55 3343.88 2059.71ZM3420.36 2062.45L3357.64 2026.29C3354.42 2041.73 3351.6 2058.82 3349.18 2077.55L3420.36 2062.45ZM3215.42 2215.28C3207.2 2217.28 3199.05 2215.87 3190.98 2211.04L3215.04 2058.04C3224.4 2056.35 3232.57 2057.63 3239.54 2061.89C3238.11 2076.04 3237.97 2086.16 3239.12 2092.27C3240.39 2098.41 3243.55 2100.95 3248.59 2099.89L3316.43 2084.66C3321.07 2061.01 3324.82 2035.5 3327.67 2008.13L3267.72 1973.2C3265.66 1972.09 3263.57 1972.35 3261.47 1974C3259.47 1975.79 3257.61 1978.86 3255.87 1983.2C3254.13 1987.54 3252.47 1992.68 3250.87 1998.63C3249.28 2004.57 3247.76 2011.32 3246.31 2018.87C3238.08 2020.87 3229.94 2019.46 3221.86 2014.63C3230.04 1972.68 3236.73 1930.17 3241.92 1887.09C3251.08 1884.98 3259.27 1886.13 3266.48 1890.56C3265.4 1917.54 3268.83 1933.44 3276.78 1938.25L3468.69 2051.86C3469.8 2051.5 3472.27 2050.84 3476.12 2049.86C3480.07 2049.03 3482.65 2048.58 3483.84 2048.51C3492.43 2060.14 3504.68 2067.73 3520.6 2071.29C3524.35 2083.48 3525.41 2097.29 3523.77 2112.71L3238.18 2178.72C3231.75 2180.22 3227.09 2183.44 3224.2 2188.39C3221.44 2193.36 3218.52 2202.32 3215.42 2215.28Z" fill="#F0F0F0"/>
<path d="M3321.44 2630.25C3325.46 2617.82 3327.91 2607.63 3328.8 2599.69C3329.76 2591.91 3328.01 2585.76 3323.54 2581.23L3117.7 2379.85L3125.38 2361.26L3413.95 2355.49C3425.66 2355.12 3437.42 2343.71 3449.25 2321.26C3458.03 2322.5 3465.69 2325.95 3472.23 2331.61C3447.5 2386.63 3427.28 2434.84 3411.56 2476.24C3403.71 2475.81 3396.07 2472.65 3388.64 2466.76C3393.86 2450.74 3396.57 2440.45 3396.76 2435.88C3396.96 2431.31 3394.49 2428.95 3389.34 2428.79L3219.89 2431.2L3340.07 2547.91C3341.7 2549.43 3343.6 2549.59 3345.79 2548.38C3348.06 2547.34 3350.51 2544.98 3353.17 2541.28C3355.77 2537.71 3358.22 2534 3360.52 2530.16C3362.81 2526.32 3365.42 2521.55 3368.34 2515.85C3377.07 2517.21 3384.73 2520.66 3391.32 2526.21C3373.45 2565.31 3358.02 2602.96 3345.02 2639.16C3336.45 2638.43 3328.59 2635.46 3321.44 2630.25ZM3330.95 2627.2C3334.04 2629.61 3336.86 2630.78 3339.43 2630.71C3345.23 2614.65 3351.53 2598.38 3358.35 2581.89C3364.87 2566.13 3372.62 2548.41 3381.61 2528.74C3379.84 2526.88 3377.01 2525.71 3373.12 2525.23C3370.4 2530.45 3368.05 2534.76 3366.08 2538.17C3364.06 2541.7 3361.29 2545.84 3357.77 2550.59C3354.26 2555.33 3350.7 2558.16 3347.08 2559.06C3343.42 2560.08 3340.08 2559.12 3337.07 2556.18L3180.09 2403.75L3398.63 2400.72C3408.25 2400.61 3412.97 2404.19 3412.79 2411.44C3412.68 2418.86 3408.07 2435.98 3398.95 2462.78C3402.04 2465.19 3404.87 2466.36 3407.43 2466.29C3420.43 2430.1 3438.72 2385.88 3462.3 2333.64C3460.59 2331.66 3457.76 2330.49 3453.82 2330.13C3442.3 2351.85 3429.05 2362.93 3414.08 2363.36L3130.77 2369.19L3127.26 2377.67L3329.08 2575.5C3334.55 2581.7 3337.11 2588.96 3336.77 2597.28C3336.5 2605.76 3334.56 2615.74 3330.95 2627.2Z" fill="#F0F0F0"/>
<path d="M3195.13 2843.36L3252.64 2763.71C3262.17 2750.52 3275.97 2732.29 3294.04 2709.05L3286.6 2703.67C3266.74 2726.28 3252.83 2734.86 3244.87 2729.43C3219.3 2712.58 3189.41 2691.8 3155.21 2667.11C3121.74 2642.95 3088.89 2618.27 3056.66 2593.07C3049 2587.21 3052.77 2571.31 3067.98 2545.35C3064.59 2542.26 3062.11 2540.47 3060.54 2539.98C3046.46 2560.81 3012.59 2608.39 2958.93 2682.71C2940.18 2708.68 2930.52 2731.41 2929.93 2750.9C2929.35 2770.4 2936.07 2793.23 2950.09 2819.41C2952.39 2819.79 2955.09 2818.93 2958.21 2816.85C2936.4 2771.87 2944.13 2723.57 2981.4 2671.95L3022.67 2614.78C3069.57 2647.03 3103.68 2670.86 3125 2686.25L3088.05 2738.11C3084.77 2742.65 3080.98 2746.33 3076.68 2749.17C3072.31 2752.12 3068.49 2754.18 3065.23 2755.36C3062 2756.72 3057.08 2757.42 3050.46 2757.46C3043.85 2757.51 3039.08 2757.44 3036.16 2757.25C3033.35 2757.15 3027.73 2756.47 3019.32 2755.22C3010.91 2753.96 3005.43 2753.22 3002.87 2752.98C3001.88 2757.24 3001.82 2760.33 3002.69 2762.24C3028.26 2764.64 3048.59 2771.29 3063.69 2782.19C3070.23 2786.91 3077.14 2794.15 3084.4 2803.89C3091.58 2813.73 3097.44 2823.74 3101.98 2833.92C3104.07 2834.15 3106.93 2833.08 3110.55 2830.72C3109.69 2828.81 3107.74 2824.83 3104.71 2818.79C3101.61 2812.86 3099.62 2808.94 3098.76 2807.02C3097.92 2805.29 3096.44 2801.9 3094.31 2796.83C3092.11 2791.87 3090.84 2788.3 3090.48 2786.12C3090.13 2783.93 3089.6 2780.66 3088.9 2776.3C3088.22 2772.12 3088.25 2768.52 3088.98 2765.52C3089.73 2762.69 3090.85 2759.48 3092.32 2755.88C3093.79 2752.29 3095.74 2748.8 3098.18 2745.42C3114.57 2722.73 3127.2 2705.67 3136.09 2694.26C3161.64 2712.7 3194.48 2737.38 3234.64 2768.3L3198.28 2818.66C3161.01 2870.28 3117.6 2892.82 3068.04 2886.27C3067.04 2889.88 3067.13 2892.76 3068.32 2894.9C3097.47 2899.89 3121.21 2899.04 3139.53 2892.35C3157.85 2885.66 3176.38 2869.33 3195.13 2843.36ZM3112.53 2816.97L3120.92 2833.38C3111.35 2839.96 3103.24 2842.63 3096.61 2841.37C3091.8 2830.67 3085.78 2820.22 3078.53 2810.01C3071.32 2799.98 3064.81 2792.87 3059 2788.68C3044.96 2778.54 3024.4 2772.21 2997.32 2769.68C2993.76 2763.26 2993.53 2754.9 2996.63 2744.61C3005.89 2745.35 3012.91 2746.09 3017.69 2746.81C3027.99 2747.66 3035.8 2748.08 3041.11 2748.06C3046.45 2748.23 3052.71 2747.12 3059.88 2744.75C3067.05 2742.38 3072.92 2738.26 3077.47 2732.4L3098.05 2703.89C3074.72 2687.05 3045.97 2666.93 3011.79 2643.54L2988.12 2676.32C2968.76 2703.13 2958.25 2728.7 2956.58 2753.04C2954.94 2777.55 2958.91 2799.85 2968.5 2819.94C2958.82 2826.44 2950.67 2829.07 2944.03 2827.81C2931.11 2797.44 2915.16 2773.48 2896.19 2755.93L2991.09 2624.5C3021.19 2582.8 3043.25 2551.58 3057.25 2530.86C3065.71 2533.6 3072.49 2538.33 3077.59 2545.06C3063.22 2569.86 3057.91 2583.77 3061.66 2586.8C3093.9 2612 3126.64 2636.61 3159.89 2660.62C3193.89 2685.16 3223.67 2705.86 3249.24 2722.71C3253.3 2725.32 3264.91 2715.8 3284.08 2694.15C3292.92 2697.48 3299.57 2702.6 3304.05 2709.53C3279.59 2741.18 3263.56 2762.28 3255.93 2772.83L3145.38 2925.96C3122.86 2913.56 3095.11 2906.05 3062.14 2903.45C3058.83 2897.36 3058.79 2888.74 3062.02 2877.59C3084 2880.29 3106.32 2876.96 3128.96 2867.62C3151.64 2858.45 3172.66 2840.47 3192.02 2813.65L3210.77 2787.68C3173.63 2759.26 3144.93 2737.74 3124.66 2723.1C3119.64 2729.6 3112.6 2739.13 3103.53 2751.69C3097.13 2760.56 3094.98 2769.77 3097.08 2779.32C3099.29 2788.94 3104.44 2801.49 3112.53 2816.97Z" fill="#F0F0F0"/>
<path d="M2900.36 2973.79C2921.3 2998.02 2944.6 3025.99 2970.27 3057.67C2976.54 3065.33 2964.17 3084.28 2933.17 3114.51C2934.2 3116.9 2936.2 3119.21 2939.17 3121.46C2964.3 3098.37 2984.11 3080.56 2998.59 3068.05C3010.71 3057.57 3028.24 3043.11 3051.19 3024.66C3050.44 3022.2 3048.44 3019.89 3045.18 3017.71C3020.65 3035.13 3005.14 3040.27 2998.64 3033.15C2977.65 3010.85 2953.36 2983.74 2925.78 2951.82C2898.79 2920.59 2872.52 2889 2846.97 2857.04C2840.86 2849.58 2848.2 2834.98 2868.99 2813.23C2867.45 2810.26 2865.45 2807.94 2862.99 2806.28C2844.49 2823.31 2800.56 2861.79 2731.2 2921.72C2707.55 2942.16 2693.65 2961.91 2689.49 2981C2685.33 3000.08 2687.2 3024.54 2695.08 3054.38C2697.32 3055.37 2700.19 3055.21 2703.71 3053.9C2701.42 3043.49 2700.2 3033.52 2700.07 3024C2699.93 3014.48 2701.23 3003.64 2703.96 2991.47C2706.78 2979.39 2712.53 2966.94 2721.22 2954.09C2729.82 2941.33 2741.25 2928.78 2755.54 2916.43L2808.89 2870.33C2839.56 2904.23 2870.05 2938.72 2900.36 2973.79ZM2868.45 2982.26C2845.12 2955.27 2819.52 2926.45 2791.66 2895.8L2761.07 2922.24C2717.33 2960.04 2701.26 3005.67 2712.88 3059.14C2701.96 3063.24 2693.42 3063.91 2687.25 3061.15C2681.16 3025.62 2670.96 2997.09 2656.65 2975.56L2775.91 2872.5C2814.83 2838.87 2843.49 2813.59 2861.89 2796.65C2869.49 2801.26 2875 2807.44 2878.4 2815.16C2858.7 2835.97 2850.33 2848.29 2853.28 2852.1C2878.83 2884.06 2905.02 2915.55 2931.83 2946.59C2959.25 2978.31 2983.45 3005.32 3004.44 3027.62C3007.79 3031.1 3021.29 3024.51 3044.93 3007.86C3052.23 3012.92 3057.52 3019.44 3060.82 3027.44C3042.82 3041.27 3020.33 3059.84 2993.33 3083.17C2989.3 3086.66 2981.3 3093.74 2969.35 3104.41C2957.41 3115.08 2946.9 3124.33 2937.84 3132.16C2931.11 3128.17 2925.78 3122.19 2921.83 3114.24C2941.73 3093.26 2950.21 3080.86 2947.25 3077.04C2927.15 3051.39 2900.88 3019.8 2868.45 2982.26Z" fill="#F0F0F0"/>
</g>
<defs>
<filter id="filter0_d_136_27" x="109.515" y="113.172" width="3446.89" height="3137.49" filterUnits="userSpaceOnUse" color-interpolation-filters="sRGB">
<feFlood flood-opacity="0" result="BackgroundImageFix"/>
<feColorMatrix in="SourceAlpha" type="matrix" values="0 0 0 0 0 0 0 0 0 0 0 0 0 0 0 0 0 0 127 0" result="hardAlpha"/>
<feOffset dy="20"/>
<feGaussianBlur stdDeviation="2"/>
<feComposite in2="hardAlpha" operator="out"/>
<feColorMatrix type="matrix" values="0 0 0 0 0 0 0 0 0 0 0 0 0 0 0 0 0 0 0.25 0"/>
<feBlend mode="normal" in2="BackgroundImageFix" result="effect1_dropShadow_136_27"/>
<feBlend mode="normal" in="SourceGraphic" in2="effect1_dropShadow_136_27" result="shape"/>
</filter>
</defs>
</svg>
